<?xml version="1.0" encoding="UTF-8" standalone="no"?>
<!DOCTYPE svg PUBLIC "-//W3C//DTD SVG 1.1//EN"
 "http://www.w3.org/Graphics/SVG/1.1/DTD/svg11.dtd">
<!-- Generated by graphviz version 2.38.0 (20140413.2041)
 -->
<!-- Title: G Pages: 1 -->
<svg width="944pt" height="2296pt"
 viewBox="0.00 0.00 943.50 2296.00" xmlns="http://www.w3.org/2000/svg" xmlns:xlink="http://www.w3.org/1999/xlink">
<g id="graph0" class="graph" transform="scale(1 1) rotate(0) translate(4 2292)">
<title>G</title>
<polygon fill="white" stroke="none" points="-4,4 -4,-2292 939.5,-2292 939.5,4 -4,4"/>
<!-- 2682524308984 -->
<g id="node1" class="node"><title>2682524308984</title>
<polygon fill="none" stroke="black" points="531.5,-2241.5 531.5,-2287.5 838.5,-2287.5 838.5,-2241.5 531.5,-2241.5"/>
<text text-anchor="middle" x="594.5" y="-2260.8" font-family="Times New Roman,serif" font-size="14.00">input_1: InputLayer</text>
<polyline fill="none" stroke="black" points="657.5,-2241.5 657.5,-2287.5 "/>
<text text-anchor="middle" x="685.5" y="-2272.3" font-family="Times New Roman,serif" font-size="14.00">input:</text>
<polyline fill="none" stroke="black" points="657.5,-2264.5 713.5,-2264.5 "/>
<text text-anchor="middle" x="685.5" y="-2249.3" font-family="Times New Roman,serif" font-size="14.00">output:</text>
<polyline fill="none" stroke="black" points="713.5,-2241.5 713.5,-2287.5 "/>
<text text-anchor="middle" x="776" y="-2272.3" font-family="Times New Roman,serif" font-size="14.00">(None, 160, 160, 3)</text>
<polyline fill="none" stroke="black" points="713.5,-2264.5 838.5,-2264.5 "/>
<text text-anchor="middle" x="776" y="-2249.3" font-family="Times New Roman,serif" font-size="14.00">(None, 160, 160, 3)</text>
</g>
<!-- 2682524309544 -->
<g id="node2" class="node"><title>2682524309544</title>
<polygon fill="none" stroke="black" points="302,-2158.5 302,-2204.5 794,-2204.5 794,-2158.5 302,-2158.5"/>
<text text-anchor="middle" x="457.5" y="-2177.8" font-family="Times New Roman,serif" font-size="14.00">separable_conv2d_keras_1: SeparableConv2DKeras</text>
<polyline fill="none" stroke="black" points="613,-2158.5 613,-2204.5 "/>
<text text-anchor="middle" x="641" y="-2189.3" font-family="Times New Roman,serif" font-size="14.00">input:</text>
<polyline fill="none" stroke="black" points="613,-2181.5 669,-2181.5 "/>
<text text-anchor="middle" x="641" y="-2166.3" font-family="Times New Roman,serif" font-size="14.00">output:</text>
<polyline fill="none" stroke="black" points="669,-2158.5 669,-2204.5 "/>
<text text-anchor="middle" x="731.5" y="-2189.3" font-family="Times New Roman,serif" font-size="14.00">(None, 160, 160, 3)</text>
<polyline fill="none" stroke="black" points="669,-2181.5 794,-2181.5 "/>
<text text-anchor="middle" x="731.5" y="-2166.3" font-family="Times New Roman,serif" font-size="14.00">(None, 80, 80, 16)</text>
</g>
<!-- 2682524308984&#45;&gt;2682524309544 -->
<g id="edge1" class="edge"><title>2682524308984&#45;&gt;2682524309544</title>
<path fill="none" stroke="black" d="M647.564,-2241.37C631.103,-2231.63 611.605,-2220.11 594.246,-2209.84"/>
<polygon fill="black" stroke="black" points="595.78,-2206.68 585.391,-2204.61 592.217,-2212.71 595.78,-2206.68"/>
</g>
<!-- 2682527919912 -->
<g id="node23" class="node"><title>2682527919912</title>
<polygon fill="none" stroke="black" points="443,-415.5 443,-461.5 929,-461.5 929,-415.5 443,-415.5"/>
<text text-anchor="middle" x="529.5" y="-434.8" font-family="Times New Roman,serif" font-size="14.00">concatenate_3: Concatenate</text>
<polyline fill="none" stroke="black" points="616,-415.5 616,-461.5 "/>
<text text-anchor="middle" x="644" y="-446.3" font-family="Times New Roman,serif" font-size="14.00">input:</text>
<polyline fill="none" stroke="black" points="616,-438.5 672,-438.5 "/>
<text text-anchor="middle" x="644" y="-423.3" font-family="Times New Roman,serif" font-size="14.00">output:</text>
<polyline fill="none" stroke="black" points="672,-415.5 672,-461.5 "/>
<text text-anchor="middle" x="800.5" y="-446.3" font-family="Times New Roman,serif" font-size="14.00">[(None, 160, 160, 32), (None, 160, 160, 3)]</text>
<polyline fill="none" stroke="black" points="672,-438.5 929,-438.5 "/>
<text text-anchor="middle" x="800.5" y="-423.3" font-family="Times New Roman,serif" font-size="14.00">(None, 160, 160, 35)</text>
</g>
<!-- 2682524308984&#45;&gt;2682527919912 -->
<g id="edge25" class="edge"><title>2682524308984&#45;&gt;2682527919912</title>
<path fill="none" stroke="black" d="M755.755,-2241.47C773.595,-2232.75 791.05,-2220.9 803,-2205 831.619,-2166.91 822,-2147.14 822,-2099.5 822,-2099.5 822,-2099.5 822,-603.5 822,-555.857 831.554,-536.138 803,-498 793.194,-484.902 779.64,-474.543 765.225,-466.419"/>
<polygon fill="black" stroke="black" points="766.643,-463.21 756.164,-461.645 763.38,-469.403 766.643,-463.21"/>
</g>
<!-- 2682524309432 -->
<g id="node3" class="node"><title>2682524309432</title>
<polygon fill="none" stroke="black" points="330.5,-2075.5 330.5,-2121.5 765.5,-2121.5 765.5,-2075.5 330.5,-2075.5"/>
<text text-anchor="middle" x="460.5" y="-2094.8" font-family="Times New Roman,serif" font-size="14.00">batch_normalization_1: BatchNormalization</text>
<polyline fill="none" stroke="black" points="590.5,-2075.5 590.5,-2121.5 "/>
<text text-anchor="middle" x="618.5" y="-2106.3" font-family="Times New Roman,serif" font-size="14.00">input:</text>
<polyline fill="none" stroke="black" points="590.5,-2098.5 646.5,-2098.5 "/>
<text text-anchor="middle" x="618.5" y="-2083.3" font-family="Times New Roman,serif" font-size="14.00">output:</text>
<polyline fill="none" stroke="black" points="646.5,-2075.5 646.5,-2121.5 "/>
<text text-anchor="middle" x="706" y="-2106.3" font-family="Times New Roman,serif" font-size="14.00">(None, 80, 80, 16)</text>
<polyline fill="none" stroke="black" points="646.5,-2098.5 765.5,-2098.5 "/>
<text text-anchor="middle" x="706" y="-2083.3" font-family="Times New Roman,serif" font-size="14.00">(None, 80, 80, 16)</text>
</g>
<!-- 2682524309544&#45;&gt;2682524309432 -->
<g id="edge2" class="edge"><title>2682524309544&#45;&gt;2682524309432</title>
<path fill="none" stroke="black" d="M548,-2158.37C548,-2150.15 548,-2140.66 548,-2131.73"/>
<polygon fill="black" stroke="black" points="551.5,-2131.61 548,-2121.61 544.5,-2131.61 551.5,-2131.61"/>
</g>
<!-- 2682524310552 -->
<g id="node4" class="node"><title>2682524310552</title>
<polygon fill="none" stroke="black" points="154,-1992.5 154,-2038.5 640,-2038.5 640,-1992.5 154,-1992.5"/>
<text text-anchor="middle" x="309.5" y="-2011.8" font-family="Times New Roman,serif" font-size="14.00">separable_conv2d_keras_2: SeparableConv2DKeras</text>
<polyline fill="none" stroke="black" points="465,-1992.5 465,-2038.5 "/>
<text text-anchor="middle" x="493" y="-2023.3" font-family="Times New Roman,serif" font-size="14.00">input:</text>
<polyline fill="none" stroke="black" points="465,-2015.5 521,-2015.5 "/>
<text text-anchor="middle" x="493" y="-2000.3" font-family="Times New Roman,serif" font-size="14.00">output:</text>
<polyline fill="none" stroke="black" points="521,-1992.5 521,-2038.5 "/>
<text text-anchor="middle" x="580.5" y="-2023.3" font-family="Times New Roman,serif" font-size="14.00">(None, 80, 80, 16)</text>
<polyline fill="none" stroke="black" points="521,-2015.5 640,-2015.5 "/>
<text text-anchor="middle" x="580.5" y="-2000.3" font-family="Times New Roman,serif" font-size="14.00">(None, 40, 40, 32)</text>
</g>
<!-- 2682524309432&#45;&gt;2682524310552 -->
<g id="edge3" class="edge"><title>2682524309432&#45;&gt;2682524310552</title>
<path fill="none" stroke="black" d="M506.739,-2075.37C488.345,-2065.5 466.512,-2053.79 447.183,-2043.42"/>
<polygon fill="black" stroke="black" points="448.678,-2040.25 438.212,-2038.61 445.369,-2046.42 448.678,-2040.25"/>
</g>
<!-- 2682526857536 -->
<g id="node17" class="node"><title>2682526857536</title>
<polygon fill="none" stroke="black" points="318,-913.5 318,-959.5 784,-959.5 784,-913.5 318,-913.5"/>
<text text-anchor="middle" x="404.5" y="-932.8" font-family="Times New Roman,serif" font-size="14.00">concatenate_2: Concatenate</text>
<polyline fill="none" stroke="black" points="491,-913.5 491,-959.5 "/>
<text text-anchor="middle" x="519" y="-944.3" font-family="Times New Roman,serif" font-size="14.00">input:</text>
<polyline fill="none" stroke="black" points="491,-936.5 547,-936.5 "/>
<text text-anchor="middle" x="519" y="-921.3" font-family="Times New Roman,serif" font-size="14.00">output:</text>
<polyline fill="none" stroke="black" points="547,-913.5 547,-959.5 "/>
<text text-anchor="middle" x="665.5" y="-944.3" font-family="Times New Roman,serif" font-size="14.00">[(None, 80, 80, 64), (None, 80, 80, 16)]</text>
<polyline fill="none" stroke="black" points="547,-936.5 784,-936.5 "/>
<text text-anchor="middle" x="665.5" y="-921.3" font-family="Times New Roman,serif" font-size="14.00">(None, 80, 80, 80)</text>
</g>
<!-- 2682524309432&#45;&gt;2682526857536 -->
<g id="edge18" class="edge"><title>2682524309432&#45;&gt;2682526857536</title>
<path fill="none" stroke="black" d="M605.265,-2075.46C621.708,-2066.49 638.115,-2054.51 649,-2039 676.371,-2000 668,-1981.14 668,-1933.5 668,-1933.5 668,-1933.5 668,-1101.5 668,-1053.69 674.388,-1035.19 647,-996 638.241,-983.468 625.853,-973.127 612.877,-964.811"/>
<polygon fill="black" stroke="black" points="614.668,-961.804 604.297,-959.635 611.052,-967.798 614.668,-961.804"/>
</g>
<!-- 2682506765592 -->
<g id="node5" class="node"><title>2682506765592</title>
<polygon fill="none" stroke="black" points="179.5,-1909.5 179.5,-1955.5 614.5,-1955.5 614.5,-1909.5 179.5,-1909.5"/>
<text text-anchor="middle" x="309.5" y="-1928.8" font-family="Times New Roman,serif" font-size="14.00">batch_normalization_2: BatchNormalization</text>
<polyline fill="none" stroke="black" points="439.5,-1909.5 439.5,-1955.5 "/>
<text text-anchor="middle" x="467.5" y="-1940.3" font-family="Times New Roman,serif" font-size="14.00">input:</text>
<polyline fill="none" stroke="black" points="439.5,-1932.5 495.5,-1932.5 "/>
<text text-anchor="middle" x="467.5" y="-1917.3" font-family="Times New Roman,serif" font-size="14.00">output:</text>
<polyline fill="none" stroke="black" points="495.5,-1909.5 495.5,-1955.5 "/>
<text text-anchor="middle" x="555" y="-1940.3" font-family="Times New Roman,serif" font-size="14.00">(None, 40, 40, 32)</text>
<polyline fill="none" stroke="black" points="495.5,-1932.5 614.5,-1932.5 "/>
<text text-anchor="middle" x="555" y="-1917.3" font-family="Times New Roman,serif" font-size="14.00">(None, 40, 40, 32)</text>
</g>
<!-- 2682524310552&#45;&gt;2682506765592 -->
<g id="edge4" class="edge"><title>2682524310552&#45;&gt;2682506765592</title>
<path fill="none" stroke="black" d="M397,-1992.37C397,-1984.15 397,-1974.66 397,-1965.73"/>
<polygon fill="black" stroke="black" points="400.5,-1965.61 397,-1955.61 393.5,-1965.61 400.5,-1965.61"/>
</g>
<!-- 2682460351064 -->
<g id="node6" class="node"><title>2682460351064</title>
<polygon fill="none" stroke="black" points="0,-1826.5 0,-1872.5 486,-1872.5 486,-1826.5 0,-1826.5"/>
<text text-anchor="middle" x="155.5" y="-1845.8" font-family="Times New Roman,serif" font-size="14.00">separable_conv2d_keras_3: SeparableConv2DKeras</text>
<polyline fill="none" stroke="black" points="311,-1826.5 311,-1872.5 "/>
<text text-anchor="middle" x="339" y="-1857.3" font-family="Times New Roman,serif" font-size="14.00">input:</text>
<polyline fill="none" stroke="black" points="311,-1849.5 367,-1849.5 "/>
<text text-anchor="middle" x="339" y="-1834.3" font-family="Times New Roman,serif" font-size="14.00">output:</text>
<polyline fill="none" stroke="black" points="367,-1826.5 367,-1872.5 "/>
<text text-anchor="middle" x="426.5" y="-1857.3" font-family="Times New Roman,serif" font-size="14.00">(None, 40, 40, 32)</text>
<polyline fill="none" stroke="black" points="367,-1849.5 486,-1849.5 "/>
<text text-anchor="middle" x="426.5" y="-1834.3" font-family="Times New Roman,serif" font-size="14.00">(None, 20, 20, 64)</text>
</g>
<!-- 2682506765592&#45;&gt;2682460351064 -->
<g id="edge5" class="edge"><title>2682506765592&#45;&gt;2682460351064</title>
<path fill="none" stroke="black" d="M354.919,-1909.37C336.075,-1899.46 313.692,-1887.68 293.913,-1877.28"/>
<polygon fill="black" stroke="black" points="295.51,-1874.16 285.03,-1872.61 292.251,-1880.36 295.51,-1874.16"/>
</g>
<!-- 2682525378152 -->
<g id="node11" class="node"><title>2682525378152</title>
<polygon fill="none" stroke="black" points="157.5,-1411.5 157.5,-1457.5 630.5,-1457.5 630.5,-1411.5 157.5,-1411.5"/>
<text text-anchor="middle" x="244" y="-1430.8" font-family="Times New Roman,serif" font-size="14.00">concatenate_1: Concatenate</text>
<polyline fill="none" stroke="black" points="330.5,-1411.5 330.5,-1457.5 "/>
<text text-anchor="middle" x="358.5" y="-1442.3" font-family="Times New Roman,serif" font-size="14.00">input:</text>
<polyline fill="none" stroke="black" points="330.5,-1434.5 386.5,-1434.5 "/>
<text text-anchor="middle" x="358.5" y="-1419.3" font-family="Times New Roman,serif" font-size="14.00">output:</text>
<polyline fill="none" stroke="black" points="386.5,-1411.5 386.5,-1457.5 "/>
<text text-anchor="middle" x="508.5" y="-1442.3" font-family="Times New Roman,serif" font-size="14.00">[(None, 40, 40, 128), (None, 40, 40, 32)]</text>
<polyline fill="none" stroke="black" points="386.5,-1434.5 630.5,-1434.5 "/>
<text text-anchor="middle" x="508.5" y="-1419.3" font-family="Times New Roman,serif" font-size="14.00">(None, 40, 40, 160)</text>
</g>
<!-- 2682506765592&#45;&gt;2682525378152 -->
<g id="edge11" class="edge"><title>2682506765592&#45;&gt;2682525378152</title>
<path fill="none" stroke="black" d="M452.074,-1909.41C468.201,-1900.4 484.344,-1888.4 495,-1873 522.114,-1833.82 514,-1815.14 514,-1767.5 514,-1767.5 514,-1767.5 514,-1599.5 514,-1551.86 522.371,-1533 495,-1494 486.071,-1481.28 473.426,-1470.93 460.094,-1462.67"/>
<polygon fill="black" stroke="black" points="461.67,-1459.54 451.265,-1457.54 458.154,-1465.59 461.67,-1459.54"/>
</g>
<!-- 2682460254672 -->
<g id="node7" class="node"><title>2682460254672</title>
<polygon fill="none" stroke="black" points="26.5,-1743.5 26.5,-1789.5 461.5,-1789.5 461.5,-1743.5 26.5,-1743.5"/>
<text text-anchor="middle" x="156.5" y="-1762.8" font-family="Times New Roman,serif" font-size="14.00">batch_normalization_3: BatchNormalization</text>
<polyline fill="none" stroke="black" points="286.5,-1743.5 286.5,-1789.5 "/>
<text text-anchor="middle" x="314.5" y="-1774.3" font-family="Times New Roman,serif" font-size="14.00">input:</text>
<polyline fill="none" stroke="black" points="286.5,-1766.5 342.5,-1766.5 "/>
<text text-anchor="middle" x="314.5" y="-1751.3" font-family="Times New Roman,serif" font-size="14.00">output:</text>
<polyline fill="none" stroke="black" points="342.5,-1743.5 342.5,-1789.5 "/>
<text text-anchor="middle" x="402" y="-1774.3" font-family="Times New Roman,serif" font-size="14.00">(None, 20, 20, 64)</text>
<polyline fill="none" stroke="black" points="342.5,-1766.5 461.5,-1766.5 "/>
<text text-anchor="middle" x="402" y="-1751.3" font-family="Times New Roman,serif" font-size="14.00">(None, 20, 20, 64)</text>
</g>
<!-- 2682460351064&#45;&gt;2682460254672 -->
<g id="edge6" class="edge"><title>2682460351064&#45;&gt;2682460254672</title>
<path fill="none" stroke="black" d="M243.273,-1826.37C243.375,-1818.15 243.492,-1808.66 243.602,-1799.73"/>
<polygon fill="black" stroke="black" points="247.103,-1799.65 243.727,-1789.61 240.104,-1799.56 247.103,-1799.65"/>
</g>
<!-- 2682524874680 -->
<g id="node8" class="node"><title>2682524874680</title>
<polygon fill="none" stroke="black" points="92,-1660.5 92,-1706.5 400,-1706.5 400,-1660.5 92,-1660.5"/>
<text text-anchor="middle" x="155.5" y="-1679.8" font-family="Times New Roman,serif" font-size="14.00">conv2d_1: Conv2D</text>
<polyline fill="none" stroke="black" points="219,-1660.5 219,-1706.5 "/>
<text text-anchor="middle" x="247" y="-1691.3" font-family="Times New Roman,serif" font-size="14.00">input:</text>
<polyline fill="none" stroke="black" points="219,-1683.5 275,-1683.5 "/>
<text text-anchor="middle" x="247" y="-1668.3" font-family="Times New Roman,serif" font-size="14.00">output:</text>
<polyline fill="none" stroke="black" points="275,-1660.5 275,-1706.5 "/>
<text text-anchor="middle" x="337.5" y="-1691.3" font-family="Times New Roman,serif" font-size="14.00">(None, 20, 20, 64)</text>
<polyline fill="none" stroke="black" points="275,-1683.5 400,-1683.5 "/>
<text text-anchor="middle" x="337.5" y="-1668.3" font-family="Times New Roman,serif" font-size="14.00">(None, 20, 20, 128)</text>
</g>
<!-- 2682460254672&#45;&gt;2682524874680 -->
<g id="edge7" class="edge"><title>2682460254672&#45;&gt;2682524874680</title>
<path fill="none" stroke="black" d="M244.547,-1743.37C244.749,-1735.15 244.984,-1725.66 245.204,-1716.73"/>
<polygon fill="black" stroke="black" points="248.706,-1716.69 245.454,-1706.61 241.708,-1716.52 248.706,-1716.69"/>
</g>
<!-- 2682525326472 -->
<g id="node9" class="node"><title>2682525326472</title>
<polygon fill="none" stroke="black" points="26.5,-1577.5 26.5,-1623.5 467.5,-1623.5 467.5,-1577.5 26.5,-1577.5"/>
<text text-anchor="middle" x="156.5" y="-1596.8" font-family="Times New Roman,serif" font-size="14.00">batch_normalization_4: BatchNormalization</text>
<polyline fill="none" stroke="black" points="286.5,-1577.5 286.5,-1623.5 "/>
<text text-anchor="middle" x="314.5" y="-1608.3" font-family="Times New Roman,serif" font-size="14.00">input:</text>
<polyline fill="none" stroke="black" points="286.5,-1600.5 342.5,-1600.5 "/>
<text text-anchor="middle" x="314.5" y="-1585.3" font-family="Times New Roman,serif" font-size="14.00">output:</text>
<polyline fill="none" stroke="black" points="342.5,-1577.5 342.5,-1623.5 "/>
<text text-anchor="middle" x="405" y="-1608.3" font-family="Times New Roman,serif" font-size="14.00">(None, 20, 20, 128)</text>
<polyline fill="none" stroke="black" points="342.5,-1600.5 467.5,-1600.5 "/>
<text text-anchor="middle" x="405" y="-1585.3" font-family="Times New Roman,serif" font-size="14.00">(None, 20, 20, 128)</text>
</g>
<!-- 2682524874680&#45;&gt;2682525326472 -->
<g id="edge8" class="edge"><title>2682524874680&#45;&gt;2682525326472</title>
<path fill="none" stroke="black" d="M246.273,-1660.37C246.375,-1652.15 246.492,-1642.66 246.602,-1633.73"/>
<polygon fill="black" stroke="black" points="250.103,-1633.65 246.727,-1623.61 243.104,-1633.56 250.103,-1633.65"/>
</g>
<!-- 2682525768448 -->
<g id="node10" class="node"><title>2682525768448</title>
<polygon fill="none" stroke="black" points="8,-1494.5 8,-1540.5 486,-1540.5 486,-1494.5 8,-1494.5"/>
<text text-anchor="middle" x="156.5" y="-1513.8" font-family="Times New Roman,serif" font-size="14.00">bilinear_up_sampling2d_1: BilinearUpSampling2D</text>
<polyline fill="none" stroke="black" points="305,-1494.5 305,-1540.5 "/>
<text text-anchor="middle" x="333" y="-1525.3" font-family="Times New Roman,serif" font-size="14.00">input:</text>
<polyline fill="none" stroke="black" points="305,-1517.5 361,-1517.5 "/>
<text text-anchor="middle" x="333" y="-1502.3" font-family="Times New Roman,serif" font-size="14.00">output:</text>
<polyline fill="none" stroke="black" points="361,-1494.5 361,-1540.5 "/>
<text text-anchor="middle" x="423.5" y="-1525.3" font-family="Times New Roman,serif" font-size="14.00">(None, 20, 20, 128)</text>
<polyline fill="none" stroke="black" points="361,-1517.5 486,-1517.5 "/>
<text text-anchor="middle" x="423.5" y="-1502.3" font-family="Times New Roman,serif" font-size="14.00">(None, 40, 40, 128)</text>
</g>
<!-- 2682525326472&#45;&gt;2682525768448 -->
<g id="edge9" class="edge"><title>2682525326472&#45;&gt;2682525768448</title>
<path fill="none" stroke="black" d="M247,-1577.37C247,-1569.15 247,-1559.66 247,-1550.73"/>
<polygon fill="black" stroke="black" points="250.5,-1550.61 247,-1540.61 243.5,-1550.61 250.5,-1550.61"/>
</g>
<!-- 2682525768448&#45;&gt;2682525378152 -->
<g id="edge10" class="edge"><title>2682525768448&#45;&gt;2682525378152</title>
<path fill="none" stroke="black" d="M287.168,-1494.37C304.993,-1484.54 326.137,-1472.89 344.891,-1462.56"/>
<polygon fill="black" stroke="black" points="346.811,-1465.5 353.88,-1457.61 343.433,-1459.37 346.811,-1465.5"/>
</g>
<!-- 2682525839256 -->
<g id="node12" class="node"><title>2682525839256</title>
<polygon fill="none" stroke="black" points="148,-1328.5 148,-1374.5 640,-1374.5 640,-1328.5 148,-1328.5"/>
<text text-anchor="middle" x="303.5" y="-1347.8" font-family="Times New Roman,serif" font-size="14.00">separable_conv2d_keras_4: SeparableConv2DKeras</text>
<polyline fill="none" stroke="black" points="459,-1328.5 459,-1374.5 "/>
<text text-anchor="middle" x="487" y="-1359.3" font-family="Times New Roman,serif" font-size="14.00">input:</text>
<polyline fill="none" stroke="black" points="459,-1351.5 515,-1351.5 "/>
<text text-anchor="middle" x="487" y="-1336.3" font-family="Times New Roman,serif" font-size="14.00">output:</text>
<polyline fill="none" stroke="black" points="515,-1328.5 515,-1374.5 "/>
<text text-anchor="middle" x="577.5" y="-1359.3" font-family="Times New Roman,serif" font-size="14.00">(None, 40, 40, 160)</text>
<polyline fill="none" stroke="black" points="515,-1351.5 640,-1351.5 "/>
<text text-anchor="middle" x="577.5" y="-1336.3" font-family="Times New Roman,serif" font-size="14.00">(None, 40, 40, 64)</text>
</g>
<!-- 2682525378152&#45;&gt;2682525839256 -->
<g id="edge12" class="edge"><title>2682525378152&#45;&gt;2682525839256</title>
<path fill="none" stroke="black" d="M394,-1411.37C394,-1403.15 394,-1393.66 394,-1384.73"/>
<polygon fill="black" stroke="black" points="397.5,-1384.61 394,-1374.61 390.5,-1384.61 397.5,-1384.61"/>
</g>
<!-- 2682525936944 -->
<g id="node13" class="node"><title>2682525936944</title>
<polygon fill="none" stroke="black" points="177.5,-1245.5 177.5,-1291.5 612.5,-1291.5 612.5,-1245.5 177.5,-1245.5"/>
<text text-anchor="middle" x="307.5" y="-1264.8" font-family="Times New Roman,serif" font-size="14.00">batch_normalization_5: BatchNormalization</text>
<polyline fill="none" stroke="black" points="437.5,-1245.5 437.5,-1291.5 "/>
<text text-anchor="middle" x="465.5" y="-1276.3" font-family="Times New Roman,serif" font-size="14.00">input:</text>
<polyline fill="none" stroke="black" points="437.5,-1268.5 493.5,-1268.5 "/>
<text text-anchor="middle" x="465.5" y="-1253.3" font-family="Times New Roman,serif" font-size="14.00">output:</text>
<polyline fill="none" stroke="black" points="493.5,-1245.5 493.5,-1291.5 "/>
<text text-anchor="middle" x="553" y="-1276.3" font-family="Times New Roman,serif" font-size="14.00">(None, 40, 40, 64)</text>
<polyline fill="none" stroke="black" points="493.5,-1268.5 612.5,-1268.5 "/>
<text text-anchor="middle" x="553" y="-1253.3" font-family="Times New Roman,serif" font-size="14.00">(None, 40, 40, 64)</text>
</g>
<!-- 2682525839256&#45;&gt;2682525936944 -->
<g id="edge13" class="edge"><title>2682525839256&#45;&gt;2682525936944</title>
<path fill="none" stroke="black" d="M394.273,-1328.37C394.375,-1320.15 394.492,-1310.66 394.602,-1301.73"/>
<polygon fill="black" stroke="black" points="398.103,-1301.65 394.727,-1291.61 391.104,-1301.56 398.103,-1301.65"/>
</g>
<!-- 2682526344864 -->
<g id="node14" class="node"><title>2682526344864</title>
<polygon fill="none" stroke="black" points="153,-1162.5 153,-1208.5 639,-1208.5 639,-1162.5 153,-1162.5"/>
<text text-anchor="middle" x="308.5" y="-1181.8" font-family="Times New Roman,serif" font-size="14.00">separable_conv2d_keras_5: SeparableConv2DKeras</text>
<polyline fill="none" stroke="black" points="464,-1162.5 464,-1208.5 "/>
<text text-anchor="middle" x="492" y="-1193.3" font-family="Times New Roman,serif" font-size="14.00">input:</text>
<polyline fill="none" stroke="black" points="464,-1185.5 520,-1185.5 "/>
<text text-anchor="middle" x="492" y="-1170.3" font-family="Times New Roman,serif" font-size="14.00">output:</text>
<polyline fill="none" stroke="black" points="520,-1162.5 520,-1208.5 "/>
<text text-anchor="middle" x="579.5" y="-1193.3" font-family="Times New Roman,serif" font-size="14.00">(None, 40, 40, 64)</text>
<polyline fill="none" stroke="black" points="520,-1185.5 639,-1185.5 "/>
<text text-anchor="middle" x="579.5" y="-1170.3" font-family="Times New Roman,serif" font-size="14.00">(None, 40, 40, 64)</text>
</g>
<!-- 2682525936944&#45;&gt;2682526344864 -->
<g id="edge14" class="edge"><title>2682525936944&#45;&gt;2682526344864</title>
<path fill="none" stroke="black" d="M395.273,-1245.37C395.375,-1237.15 395.492,-1227.66 395.602,-1218.73"/>
<polygon fill="black" stroke="black" points="399.103,-1218.65 395.727,-1208.61 392.104,-1218.56 399.103,-1218.65"/>
</g>
<!-- 2682526731568 -->
<g id="node15" class="node"><title>2682526731568</title>
<polygon fill="none" stroke="black" points="180.5,-1079.5 180.5,-1125.5 615.5,-1125.5 615.5,-1079.5 180.5,-1079.5"/>
<text text-anchor="middle" x="310.5" y="-1098.8" font-family="Times New Roman,serif" font-size="14.00">batch_normalization_6: BatchNormalization</text>
<polyline fill="none" stroke="black" points="440.5,-1079.5 440.5,-1125.5 "/>
<text text-anchor="middle" x="468.5" y="-1110.3" font-family="Times New Roman,serif" font-size="14.00">input:</text>
<polyline fill="none" stroke="black" points="440.5,-1102.5 496.5,-1102.5 "/>
<text text-anchor="middle" x="468.5" y="-1087.3" font-family="Times New Roman,serif" font-size="14.00">output:</text>
<polyline fill="none" stroke="black" points="496.5,-1079.5 496.5,-1125.5 "/>
<text text-anchor="middle" x="556" y="-1110.3" font-family="Times New Roman,serif" font-size="14.00">(None, 40, 40, 64)</text>
<polyline fill="none" stroke="black" points="496.5,-1102.5 615.5,-1102.5 "/>
<text text-anchor="middle" x="556" y="-1087.3" font-family="Times New Roman,serif" font-size="14.00">(None, 40, 40, 64)</text>
</g>
<!-- 2682526344864&#45;&gt;2682526731568 -->
<g id="edge15" class="edge"><title>2682526344864&#45;&gt;2682526731568</title>
<path fill="none" stroke="black" d="M396.547,-1162.37C396.749,-1154.15 396.984,-1144.66 397.204,-1135.73"/>
<polygon fill="black" stroke="black" points="400.706,-1135.69 397.454,-1125.61 393.708,-1135.52 400.706,-1135.69"/>
</g>
<!-- 2682526856920 -->
<g id="node16" class="node"><title>2682526856920</title>
<polygon fill="none" stroke="black" points="166,-996.5 166,-1042.5 638,-1042.5 638,-996.5 166,-996.5"/>
<text text-anchor="middle" x="314.5" y="-1015.8" font-family="Times New Roman,serif" font-size="14.00">bilinear_up_sampling2d_2: BilinearUpSampling2D</text>
<polyline fill="none" stroke="black" points="463,-996.5 463,-1042.5 "/>
<text text-anchor="middle" x="491" y="-1027.3" font-family="Times New Roman,serif" font-size="14.00">input:</text>
<polyline fill="none" stroke="black" points="463,-1019.5 519,-1019.5 "/>
<text text-anchor="middle" x="491" y="-1004.3" font-family="Times New Roman,serif" font-size="14.00">output:</text>
<polyline fill="none" stroke="black" points="519,-996.5 519,-1042.5 "/>
<text text-anchor="middle" x="578.5" y="-1027.3" font-family="Times New Roman,serif" font-size="14.00">(None, 40, 40, 64)</text>
<polyline fill="none" stroke="black" points="519,-1019.5 638,-1019.5 "/>
<text text-anchor="middle" x="578.5" y="-1004.3" font-family="Times New Roman,serif" font-size="14.00">(None, 80, 80, 64)</text>
</g>
<!-- 2682526731568&#45;&gt;2682526856920 -->
<g id="edge16" class="edge"><title>2682526731568&#45;&gt;2682526856920</title>
<path fill="none" stroke="black" d="M399.093,-1079.37C399.499,-1071.15 399.968,-1061.66 400.409,-1052.73"/>
<polygon fill="black" stroke="black" points="403.911,-1052.77 400.908,-1042.61 396.919,-1052.42 403.911,-1052.77"/>
</g>
<!-- 2682526856920&#45;&gt;2682526857536 -->
<g id="edge17" class="edge"><title>2682526856920&#45;&gt;2682526857536</title>
<path fill="none" stroke="black" d="M442.715,-996.366C460.865,-986.5 482.408,-974.788 501.482,-964.419"/>
<polygon fill="black" stroke="black" points="503.22,-967.458 510.334,-959.607 499.877,-961.308 503.22,-967.458"/>
</g>
<!-- 2682526857312 -->
<g id="node18" class="node"><title>2682526857312</title>
<polygon fill="none" stroke="black" points="308,-830.5 308,-876.5 794,-876.5 794,-830.5 308,-830.5"/>
<text text-anchor="middle" x="463.5" y="-849.8" font-family="Times New Roman,serif" font-size="14.00">separable_conv2d_keras_6: SeparableConv2DKeras</text>
<polyline fill="none" stroke="black" points="619,-830.5 619,-876.5 "/>
<text text-anchor="middle" x="647" y="-861.3" font-family="Times New Roman,serif" font-size="14.00">input:</text>
<polyline fill="none" stroke="black" points="619,-853.5 675,-853.5 "/>
<text text-anchor="middle" x="647" y="-838.3" font-family="Times New Roman,serif" font-size="14.00">output:</text>
<polyline fill="none" stroke="black" points="675,-830.5 675,-876.5 "/>
<text text-anchor="middle" x="734.5" y="-861.3" font-family="Times New Roman,serif" font-size="14.00">(None, 80, 80, 80)</text>
<polyline fill="none" stroke="black" points="675,-853.5 794,-853.5 "/>
<text text-anchor="middle" x="734.5" y="-838.3" font-family="Times New Roman,serif" font-size="14.00">(None, 80, 80, 32)</text>
</g>
<!-- 2682526857536&#45;&gt;2682526857312 -->
<g id="edge19" class="edge"><title>2682526857536&#45;&gt;2682526857312</title>
<path fill="none" stroke="black" d="M551,-913.366C551,-905.152 551,-895.658 551,-886.725"/>
<polygon fill="black" stroke="black" points="554.5,-886.607 551,-876.607 547.5,-886.607 554.5,-886.607"/>
</g>
<!-- 2682527186280 -->
<g id="node19" class="node"><title>2682527186280</title>
<polygon fill="none" stroke="black" points="333.5,-747.5 333.5,-793.5 768.5,-793.5 768.5,-747.5 333.5,-747.5"/>
<text text-anchor="middle" x="463.5" y="-766.8" font-family="Times New Roman,serif" font-size="14.00">batch_normalization_7: BatchNormalization</text>
<polyline fill="none" stroke="black" points="593.5,-747.5 593.5,-793.5 "/>
<text text-anchor="middle" x="621.5" y="-778.3" font-family="Times New Roman,serif" font-size="14.00">input:</text>
<polyline fill="none" stroke="black" points="593.5,-770.5 649.5,-770.5 "/>
<text text-anchor="middle" x="621.5" y="-755.3" font-family="Times New Roman,serif" font-size="14.00">output:</text>
<polyline fill="none" stroke="black" points="649.5,-747.5 649.5,-793.5 "/>
<text text-anchor="middle" x="709" y="-778.3" font-family="Times New Roman,serif" font-size="14.00">(None, 80, 80, 32)</text>
<polyline fill="none" stroke="black" points="649.5,-770.5 768.5,-770.5 "/>
<text text-anchor="middle" x="709" y="-755.3" font-family="Times New Roman,serif" font-size="14.00">(None, 80, 80, 32)</text>
</g>
<!-- 2682526857312&#45;&gt;2682527186280 -->
<g id="edge20" class="edge"><title>2682526857312&#45;&gt;2682527186280</title>
<path fill="none" stroke="black" d="M551,-830.366C551,-822.152 551,-812.658 551,-803.725"/>
<polygon fill="black" stroke="black" points="554.5,-803.607 551,-793.607 547.5,-803.607 554.5,-803.607"/>
</g>
<!-- 2682527361904 -->
<g id="node20" class="node"><title>2682527361904</title>
<polygon fill="none" stroke="black" points="308,-664.5 308,-710.5 794,-710.5 794,-664.5 308,-664.5"/>
<text text-anchor="middle" x="463.5" y="-683.8" font-family="Times New Roman,serif" font-size="14.00">separable_conv2d_keras_7: SeparableConv2DKeras</text>
<polyline fill="none" stroke="black" points="619,-664.5 619,-710.5 "/>
<text text-anchor="middle" x="647" y="-695.3" font-family="Times New Roman,serif" font-size="14.00">input:</text>
<polyline fill="none" stroke="black" points="619,-687.5 675,-687.5 "/>
<text text-anchor="middle" x="647" y="-672.3" font-family="Times New Roman,serif" font-size="14.00">output:</text>
<polyline fill="none" stroke="black" points="675,-664.5 675,-710.5 "/>
<text text-anchor="middle" x="734.5" y="-695.3" font-family="Times New Roman,serif" font-size="14.00">(None, 80, 80, 32)</text>
<polyline fill="none" stroke="black" points="675,-687.5 794,-687.5 "/>
<text text-anchor="middle" x="734.5" y="-672.3" font-family="Times New Roman,serif" font-size="14.00">(None, 80, 80, 32)</text>
</g>
<!-- 2682527186280&#45;&gt;2682527361904 -->
<g id="edge21" class="edge"><title>2682527186280&#45;&gt;2682527361904</title>
<path fill="none" stroke="black" d="M551,-747.366C551,-739.152 551,-729.658 551,-720.725"/>
<polygon fill="black" stroke="black" points="554.5,-720.607 551,-710.607 547.5,-720.607 554.5,-720.607"/>
</g>
<!-- 2682527362744 -->
<g id="node21" class="node"><title>2682527362744</title>
<polygon fill="none" stroke="black" points="333.5,-581.5 333.5,-627.5 768.5,-627.5 768.5,-581.5 333.5,-581.5"/>
<text text-anchor="middle" x="463.5" y="-600.8" font-family="Times New Roman,serif" font-size="14.00">batch_normalization_8: BatchNormalization</text>
<polyline fill="none" stroke="black" points="593.5,-581.5 593.5,-627.5 "/>
<text text-anchor="middle" x="621.5" y="-612.3" font-family="Times New Roman,serif" font-size="14.00">input:</text>
<polyline fill="none" stroke="black" points="593.5,-604.5 649.5,-604.5 "/>
<text text-anchor="middle" x="621.5" y="-589.3" font-family="Times New Roman,serif" font-size="14.00">output:</text>
<polyline fill="none" stroke="black" points="649.5,-581.5 649.5,-627.5 "/>
<text text-anchor="middle" x="709" y="-612.3" font-family="Times New Roman,serif" font-size="14.00">(None, 80, 80, 32)</text>
<polyline fill="none" stroke="black" points="649.5,-604.5 768.5,-604.5 "/>
<text text-anchor="middle" x="709" y="-589.3" font-family="Times New Roman,serif" font-size="14.00">(None, 80, 80, 32)</text>
</g>
<!-- 2682527361904&#45;&gt;2682527362744 -->
<g id="edge22" class="edge"><title>2682527361904&#45;&gt;2682527362744</title>
<path fill="none" stroke="black" d="M551,-664.366C551,-656.152 551,-646.658 551,-637.725"/>
<polygon fill="black" stroke="black" points="554.5,-637.607 551,-627.607 547.5,-637.607 554.5,-637.607"/>
</g>
<!-- 2682527514408 -->
<g id="node22" class="node"><title>2682527514408</title>
<polygon fill="none" stroke="black" points="308.5,-498.5 308.5,-544.5 793.5,-544.5 793.5,-498.5 308.5,-498.5"/>
<text text-anchor="middle" x="457" y="-517.8" font-family="Times New Roman,serif" font-size="14.00">bilinear_up_sampling2d_3: BilinearUpSampling2D</text>
<polyline fill="none" stroke="black" points="605.5,-498.5 605.5,-544.5 "/>
<text text-anchor="middle" x="633.5" y="-529.3" font-family="Times New Roman,serif" font-size="14.00">input:</text>
<polyline fill="none" stroke="black" points="605.5,-521.5 661.5,-521.5 "/>
<text text-anchor="middle" x="633.5" y="-506.3" font-family="Times New Roman,serif" font-size="14.00">output:</text>
<polyline fill="none" stroke="black" points="661.5,-498.5 661.5,-544.5 "/>
<text text-anchor="middle" x="727.5" y="-529.3" font-family="Times New Roman,serif" font-size="14.00">(None, 80, 80, 32)</text>
<polyline fill="none" stroke="black" points="661.5,-521.5 793.5,-521.5 "/>
<text text-anchor="middle" x="727.5" y="-506.3" font-family="Times New Roman,serif" font-size="14.00">(None, 160, 160, 32)</text>
</g>
<!-- 2682527362744&#45;&gt;2682527514408 -->
<g id="edge23" class="edge"><title>2682527362744&#45;&gt;2682527514408</title>
<path fill="none" stroke="black" d="M551,-581.366C551,-573.152 551,-563.658 551,-554.725"/>
<polygon fill="black" stroke="black" points="554.5,-554.607 551,-544.607 547.5,-554.607 554.5,-554.607"/>
</g>
<!-- 2682527514408&#45;&gt;2682527919912 -->
<g id="edge24" class="edge"><title>2682527514408&#45;&gt;2682527919912</title>
<path fill="none" stroke="black" d="M587.889,-498.366C604.11,-488.634 623.324,-477.106 640.429,-466.842"/>
<polygon fill="black" stroke="black" points="642.381,-469.753 649.155,-461.607 638.78,-463.751 642.381,-469.753"/>
</g>
<!-- 2682528247312 -->
<g id="node24" class="node"><title>2682528247312</title>
<polygon fill="none" stroke="black" points="436.5,-332.5 436.5,-378.5 935.5,-378.5 935.5,-332.5 436.5,-332.5"/>
<text text-anchor="middle" x="592" y="-351.8" font-family="Times New Roman,serif" font-size="14.00">separable_conv2d_keras_8: SeparableConv2DKeras</text>
<polyline fill="none" stroke="black" points="747.5,-332.5 747.5,-378.5 "/>
<text text-anchor="middle" x="775.5" y="-363.3" font-family="Times New Roman,serif" font-size="14.00">input:</text>
<polyline fill="none" stroke="black" points="747.5,-355.5 803.5,-355.5 "/>
<text text-anchor="middle" x="775.5" y="-340.3" font-family="Times New Roman,serif" font-size="14.00">output:</text>
<polyline fill="none" stroke="black" points="803.5,-332.5 803.5,-378.5 "/>
<text text-anchor="middle" x="869.5" y="-363.3" font-family="Times New Roman,serif" font-size="14.00">(None, 160, 160, 35)</text>
<polyline fill="none" stroke="black" points="803.5,-355.5 935.5,-355.5 "/>
<text text-anchor="middle" x="869.5" y="-340.3" font-family="Times New Roman,serif" font-size="14.00">(None, 160, 160, 16)</text>
</g>
<!-- 2682527919912&#45;&gt;2682528247312 -->
<g id="edge26" class="edge"><title>2682527919912&#45;&gt;2682528247312</title>
<path fill="none" stroke="black" d="M686,-415.366C686,-407.152 686,-397.658 686,-388.725"/>
<polygon fill="black" stroke="black" points="689.5,-388.607 686,-378.607 682.5,-388.607 689.5,-388.607"/>
</g>
<!-- 2682528197376 -->
<g id="node25" class="node"><title>2682528197376</title>
<polygon fill="none" stroke="black" points="462,-249.5 462,-295.5 910,-295.5 910,-249.5 462,-249.5"/>
<text text-anchor="middle" x="592" y="-268.8" font-family="Times New Roman,serif" font-size="14.00">batch_normalization_9: BatchNormalization</text>
<polyline fill="none" stroke="black" points="722,-249.5 722,-295.5 "/>
<text text-anchor="middle" x="750" y="-280.3" font-family="Times New Roman,serif" font-size="14.00">input:</text>
<polyline fill="none" stroke="black" points="722,-272.5 778,-272.5 "/>
<text text-anchor="middle" x="750" y="-257.3" font-family="Times New Roman,serif" font-size="14.00">output:</text>
<polyline fill="none" stroke="black" points="778,-249.5 778,-295.5 "/>
<text text-anchor="middle" x="844" y="-280.3" font-family="Times New Roman,serif" font-size="14.00">(None, 160, 160, 16)</text>
<polyline fill="none" stroke="black" points="778,-272.5 910,-272.5 "/>
<text text-anchor="middle" x="844" y="-257.3" font-family="Times New Roman,serif" font-size="14.00">(None, 160, 160, 16)</text>
</g>
<!-- 2682528247312&#45;&gt;2682528197376 -->
<g id="edge27" class="edge"><title>2682528247312&#45;&gt;2682528197376</title>
<path fill="none" stroke="black" d="M686,-332.366C686,-324.152 686,-314.658 686,-305.725"/>
<polygon fill="black" stroke="black" points="689.5,-305.607 686,-295.607 682.5,-305.607 689.5,-305.607"/>
</g>
<!-- 2682527865152 -->
<g id="node26" class="node"><title>2682527865152</title>
<polygon fill="none" stroke="black" points="436.5,-166.5 436.5,-212.5 935.5,-212.5 935.5,-166.5 436.5,-166.5"/>
<text text-anchor="middle" x="592" y="-185.8" font-family="Times New Roman,serif" font-size="14.00">separable_conv2d_keras_9: SeparableConv2DKeras</text>
<polyline fill="none" stroke="black" points="747.5,-166.5 747.5,-212.5 "/>
<text text-anchor="middle" x="775.5" y="-197.3" font-family="Times New Roman,serif" font-size="14.00">input:</text>
<polyline fill="none" stroke="black" points="747.5,-189.5 803.5,-189.5 "/>
<text text-anchor="middle" x="775.5" y="-174.3" font-family="Times New Roman,serif" font-size="14.00">output:</text>
<polyline fill="none" stroke="black" points="803.5,-166.5 803.5,-212.5 "/>
<text text-anchor="middle" x="869.5" y="-197.3" font-family="Times New Roman,serif" font-size="14.00">(None, 160, 160, 16)</text>
<polyline fill="none" stroke="black" points="803.5,-189.5 935.5,-189.5 "/>
<text text-anchor="middle" x="869.5" y="-174.3" font-family="Times New Roman,serif" font-size="14.00">(None, 160, 160, 16)</text>
</g>
<!-- 2682528197376&#45;&gt;2682527865152 -->
<g id="edge28" class="edge"><title>2682528197376&#45;&gt;2682527865152</title>
<path fill="none" stroke="black" d="M686,-249.366C686,-241.152 686,-231.658 686,-222.725"/>
<polygon fill="black" stroke="black" points="689.5,-222.607 686,-212.607 682.5,-222.607 689.5,-222.607"/>
</g>
<!-- 2682528840896 -->
<g id="node27" class="node"><title>2682528840896</title>
<polygon fill="none" stroke="black" points="459,-83.5 459,-129.5 913,-129.5 913,-83.5 459,-83.5"/>
<text text-anchor="middle" x="592" y="-102.8" font-family="Times New Roman,serif" font-size="14.00">batch_normalization_10: BatchNormalization</text>
<polyline fill="none" stroke="black" points="725,-83.5 725,-129.5 "/>
<text text-anchor="middle" x="753" y="-114.3" font-family="Times New Roman,serif" font-size="14.00">input:</text>
<polyline fill="none" stroke="black" points="725,-106.5 781,-106.5 "/>
<text text-anchor="middle" x="753" y="-91.3" font-family="Times New Roman,serif" font-size="14.00">output:</text>
<polyline fill="none" stroke="black" points="781,-83.5 781,-129.5 "/>
<text text-anchor="middle" x="847" y="-114.3" font-family="Times New Roman,serif" font-size="14.00">(None, 160, 160, 16)</text>
<polyline fill="none" stroke="black" points="781,-106.5 913,-106.5 "/>
<text text-anchor="middle" x="847" y="-91.3" font-family="Times New Roman,serif" font-size="14.00">(None, 160, 160, 16)</text>
</g>
<!-- 2682527865152&#45;&gt;2682528840896 -->
<g id="edge29" class="edge"><title>2682527865152&#45;&gt;2682528840896</title>
<path fill="none" stroke="black" d="M686,-166.366C686,-158.152 686,-148.658 686,-139.725"/>
<polygon fill="black" stroke="black" points="689.5,-139.607 686,-129.607 682.5,-139.607 689.5,-139.607"/>
</g>
<!-- 2682528909240 -->
<g id="node28" class="node"><title>2682528909240</title>
<polygon fill="none" stroke="black" points="528.5,-0.5 528.5,-46.5 843.5,-46.5 843.5,-0.5 528.5,-0.5"/>
<text text-anchor="middle" x="592" y="-19.8" font-family="Times New Roman,serif" font-size="14.00">conv2d_2: Conv2D</text>
<polyline fill="none" stroke="black" points="655.5,-0.5 655.5,-46.5 "/>
<text text-anchor="middle" x="683.5" y="-31.3" font-family="Times New Roman,serif" font-size="14.00">input:</text>
<polyline fill="none" stroke="black" points="655.5,-23.5 711.5,-23.5 "/>
<text text-anchor="middle" x="683.5" y="-8.3" font-family="Times New Roman,serif" font-size="14.00">output:</text>
<polyline fill="none" stroke="black" points="711.5,-0.5 711.5,-46.5 "/>
<text text-anchor="middle" x="777.5" y="-31.3" font-family="Times New Roman,serif" font-size="14.00">(None, 160, 160, 16)</text>
<polyline fill="none" stroke="black" points="711.5,-23.5 843.5,-23.5 "/>
<text text-anchor="middle" x="777.5" y="-8.3" font-family="Times New Roman,serif" font-size="14.00">(None, 160, 160, 3)</text>
</g>
<!-- 2682528840896&#45;&gt;2682528909240 -->
<g id="edge30" class="edge"><title>2682528840896&#45;&gt;2682528909240</title>
<path fill="none" stroke="black" d="M686,-83.3664C686,-75.1516 686,-65.6579 686,-56.7252"/>
<polygon fill="black" stroke="black" points="689.5,-56.6068 686,-46.6068 682.5,-56.6069 689.5,-56.6068"/>
</g>
</g>
</svg>
