<?xml version="1.0" encoding="UTF-8" standalone="no"?>
<!DOCTYPE svg PUBLIC "-//W3C//DTD SVG 1.1//EN"
 "http://www.w3.org/Graphics/SVG/1.1/DTD/svg11.dtd">
<!-- Generated by graphviz version 2.38.0 (20140413.2041)
 -->
<!-- Title: G Pages: 1 -->
<svg width="9145pt" height="210pt"
 viewBox="0.00 0.00 9145.00 210.00" xmlns="http://www.w3.org/2000/svg" xmlns:xlink="http://www.w3.org/1999/xlink">
<g id="graph0" class="graph" transform="scale(1 1) rotate(0) translate(4 206)">
<title>G</title>
<polygon fill="white" stroke="none" points="-4,4 -4,-206 9141,-206 9141,4 -4,4"/>
<!-- 2682524308984 -->
<g id="node1" class="node"><title>2682524308984</title>
<polygon fill="none" stroke="black" points="0,-0.5 0,-69.5 250,-69.5 250,-0.5 0,-0.5"/>
<text text-anchor="middle" x="125" y="-54.3" font-family="Times New Roman,serif" font-size="14.00">input_1: InputLayer</text>
<polyline fill="none" stroke="black" points="0,-46.5 250,-46.5 "/>
<text text-anchor="middle" x="60" y="-31.3" font-family="Times New Roman,serif" font-size="14.00">input:</text>
<polyline fill="none" stroke="black" points="120,-23.5 120,-46.5 "/>
<text text-anchor="middle" x="185" y="-31.3" font-family="Times New Roman,serif" font-size="14.00">output:</text>
<polyline fill="none" stroke="black" points="0,-23.5 250,-23.5 "/>
<text text-anchor="middle" x="62.5" y="-8.3" font-family="Times New Roman,serif" font-size="14.00">(None, 160, 160, 3)</text>
<polyline fill="none" stroke="black" points="125,-0.5 125,-23.5 "/>
<text text-anchor="middle" x="187.5" y="-8.3" font-family="Times New Roman,serif" font-size="14.00">(None, 160, 160, 3)</text>
</g>
<!-- 2682524309544 -->
<g id="node2" class="node"><title>2682524309544</title>
<polygon fill="none" stroke="black" points="286,-32.5 286,-101.5 597,-101.5 597,-32.5 286,-32.5"/>
<text text-anchor="middle" x="441.5" y="-86.3" font-family="Times New Roman,serif" font-size="14.00">separable_conv2d_keras_1: SeparableConv2DKeras</text>
<polyline fill="none" stroke="black" points="286,-78.5 597,-78.5 "/>
<text text-anchor="middle" x="361.5" y="-63.3" font-family="Times New Roman,serif" font-size="14.00">input:</text>
<polyline fill="none" stroke="black" points="437,-55.5 437,-78.5 "/>
<text text-anchor="middle" x="517" y="-63.3" font-family="Times New Roman,serif" font-size="14.00">output:</text>
<polyline fill="none" stroke="black" points="286,-55.5 597,-55.5 "/>
<text text-anchor="middle" x="365" y="-40.3" font-family="Times New Roman,serif" font-size="14.00">(None, 160, 160, 3)</text>
<polyline fill="none" stroke="black" points="444,-32.5 444,-55.5 "/>
<text text-anchor="middle" x="520.5" y="-40.3" font-family="Times New Roman,serif" font-size="14.00">(None, 80, 80, 16)</text>
</g>
<!-- 2682524308984&#45;&gt;2682524309544 -->
<g id="edge1" class="edge"><title>2682524308984&#45;&gt;2682524309544</title>
<path fill="none" stroke="black" d="M250.299,-47.6472C258.69,-48.5011 267.213,-49.3683 275.765,-50.2384"/>
<polygon fill="black" stroke="black" points="275.51,-53.7304 285.813,-51.2607 276.218,-46.7664 275.51,-53.7304"/>
</g>
<!-- 2682527919912 -->
<g id="node23" class="node"><title>2682527919912</title>
<polygon fill="none" stroke="black" points="7159,-0.5 7159,-69.5 7548,-69.5 7548,-0.5 7159,-0.5"/>
<text text-anchor="middle" x="7353.5" y="-54.3" font-family="Times New Roman,serif" font-size="14.00">concatenate_3: Concatenate</text>
<polyline fill="none" stroke="black" points="7159,-46.5 7548,-46.5 "/>
<text text-anchor="middle" x="7254" y="-31.3" font-family="Times New Roman,serif" font-size="14.00">input:</text>
<polyline fill="none" stroke="black" points="7349,-23.5 7349,-46.5 "/>
<text text-anchor="middle" x="7448.5" y="-31.3" font-family="Times New Roman,serif" font-size="14.00">output:</text>
<polyline fill="none" stroke="black" points="7159,-23.5 7548,-23.5 "/>
<text text-anchor="middle" x="7287.5" y="-8.3" font-family="Times New Roman,serif" font-size="14.00">[(None, 160, 160, 32), (None, 160, 160, 3)]</text>
<polyline fill="none" stroke="black" points="7416,-0.5 7416,-23.5 "/>
<text text-anchor="middle" x="7482" y="-8.3" font-family="Times New Roman,serif" font-size="14.00">(None, 160, 160, 35)</text>
</g>
<!-- 2682524308984&#45;&gt;2682527919912 -->
<g id="edge25" class="edge"><title>2682524308984&#45;&gt;2682527919912</title>
<path fill="none" stroke="black" d="M250.218,-25.3613C378.351,-16.2612 584.018,-4 762,-4 762,-4 762,-4 6661,-4 6825.13,-4 7010.96,-12.8241 7148.62,-21.0565"/>
<polygon fill="black" stroke="black" points="7148.67,-24.5658 7158.86,-21.6733 7149.09,-17.5785 7148.67,-24.5658"/>
</g>
<!-- 2682524309432 -->
<g id="node3" class="node"><title>2682524309432</title>
<polygon fill="none" stroke="black" points="633,-32.5 633,-101.5 893,-101.5 893,-32.5 633,-32.5"/>
<text text-anchor="middle" x="763" y="-86.3" font-family="Times New Roman,serif" font-size="14.00">batch_normalization_1: BatchNormalization</text>
<polyline fill="none" stroke="black" points="633,-78.5 893,-78.5 "/>
<text text-anchor="middle" x="695.5" y="-63.3" font-family="Times New Roman,serif" font-size="14.00">input:</text>
<polyline fill="none" stroke="black" points="758,-55.5 758,-78.5 "/>
<text text-anchor="middle" x="825.5" y="-63.3" font-family="Times New Roman,serif" font-size="14.00">output:</text>
<polyline fill="none" stroke="black" points="633,-55.5 893,-55.5 "/>
<text text-anchor="middle" x="698" y="-40.3" font-family="Times New Roman,serif" font-size="14.00">(None, 80, 80, 16)</text>
<polyline fill="none" stroke="black" points="763,-32.5 763,-55.5 "/>
<text text-anchor="middle" x="828" y="-40.3" font-family="Times New Roman,serif" font-size="14.00">(None, 80, 80, 16)</text>
</g>
<!-- 2682524309544&#45;&gt;2682524309432 -->
<g id="edge2" class="edge"><title>2682524309544&#45;&gt;2682524309432</title>
<path fill="none" stroke="black" d="M597.103,-67C605.596,-67 614.108,-67 622.544,-67"/>
<polygon fill="black" stroke="black" points="622.789,-70.5001 632.789,-67 622.789,-63.5001 622.789,-70.5001"/>
</g>
<!-- 2682524310552 -->
<g id="node4" class="node"><title>2682524310552</title>
<polygon fill="none" stroke="black" points="929,-82.5 929,-151.5 1240,-151.5 1240,-82.5 929,-82.5"/>
<text text-anchor="middle" x="1084.5" y="-136.3" font-family="Times New Roman,serif" font-size="14.00">separable_conv2d_keras_2: SeparableConv2DKeras</text>
<polyline fill="none" stroke="black" points="929,-128.5 1240,-128.5 "/>
<text text-anchor="middle" x="1004.5" y="-113.3" font-family="Times New Roman,serif" font-size="14.00">input:</text>
<polyline fill="none" stroke="black" points="1080,-105.5 1080,-128.5 "/>
<text text-anchor="middle" x="1160" y="-113.3" font-family="Times New Roman,serif" font-size="14.00">output:</text>
<polyline fill="none" stroke="black" points="929,-105.5 1240,-105.5 "/>
<text text-anchor="middle" x="1006.5" y="-90.3" font-family="Times New Roman,serif" font-size="14.00">(None, 80, 80, 16)</text>
<polyline fill="none" stroke="black" points="1084,-82.5 1084,-105.5 "/>
<text text-anchor="middle" x="1162" y="-90.3" font-family="Times New Roman,serif" font-size="14.00">(None, 40, 40, 32)</text>
</g>
<!-- 2682524309432&#45;&gt;2682524310552 -->
<g id="edge3" class="edge"><title>2682524309432&#45;&gt;2682524310552</title>
<path fill="none" stroke="black" d="M893.032,-87.1928C901.497,-88.5175 910.081,-89.8608 918.685,-91.2073"/>
<polygon fill="black" stroke="black" points="918.367,-94.7001 928.788,-92.7884 919.449,-87.7843 918.367,-94.7001"/>
</g>
<!-- 2682526857536 -->
<g id="node17" class="node"><title>2682526857536</title>
<polygon fill="none" stroke="black" points="5148,-32.5 5148,-101.5 5504,-101.5 5504,-32.5 5148,-32.5"/>
<text text-anchor="middle" x="5326" y="-86.3" font-family="Times New Roman,serif" font-size="14.00">concatenate_2: Concatenate</text>
<polyline fill="none" stroke="black" points="5148,-78.5 5504,-78.5 "/>
<text text-anchor="middle" x="5234.5" y="-63.3" font-family="Times New Roman,serif" font-size="14.00">input:</text>
<polyline fill="none" stroke="black" points="5321,-55.5 5321,-78.5 "/>
<text text-anchor="middle" x="5412.5" y="-63.3" font-family="Times New Roman,serif" font-size="14.00">output:</text>
<polyline fill="none" stroke="black" points="5148,-55.5 5504,-55.5 "/>
<text text-anchor="middle" x="5266.5" y="-40.3" font-family="Times New Roman,serif" font-size="14.00">[(None, 80, 80, 64), (None, 80, 80, 16)]</text>
<polyline fill="none" stroke="black" points="5385,-32.5 5385,-55.5 "/>
<text text-anchor="middle" x="5444.5" y="-40.3" font-family="Times New Roman,serif" font-size="14.00">(None, 80, 80, 80)</text>
</g>
<!-- 2682524309432&#45;&gt;2682526857536 -->
<g id="edge18" class="edge"><title>2682524309432&#45;&gt;2682526857536</title>
<path fill="none" stroke="black" d="M893.203,-62.842C1022.65,-59.0385 1227.6,-54 1405,-54 1405,-54 1405,-54 4650,-54 4814.8,-54 5002.2,-57.9217 5137.65,-61.4571"/>
<polygon fill="black" stroke="black" points="5137.63,-64.9578 5147.72,-61.7218 5137.82,-57.9602 5137.63,-64.9578"/>
</g>
<!-- 2682506765592 -->
<g id="node5" class="node"><title>2682506765592</title>
<polygon fill="none" stroke="black" points="1276,-82.5 1276,-151.5 1536,-151.5 1536,-82.5 1276,-82.5"/>
<text text-anchor="middle" x="1406" y="-136.3" font-family="Times New Roman,serif" font-size="14.00">batch_normalization_2: BatchNormalization</text>
<polyline fill="none" stroke="black" points="1276,-128.5 1536,-128.5 "/>
<text text-anchor="middle" x="1338.5" y="-113.3" font-family="Times New Roman,serif" font-size="14.00">input:</text>
<polyline fill="none" stroke="black" points="1401,-105.5 1401,-128.5 "/>
<text text-anchor="middle" x="1468.5" y="-113.3" font-family="Times New Roman,serif" font-size="14.00">output:</text>
<polyline fill="none" stroke="black" points="1276,-105.5 1536,-105.5 "/>
<text text-anchor="middle" x="1341" y="-90.3" font-family="Times New Roman,serif" font-size="14.00">(None, 40, 40, 32)</text>
<polyline fill="none" stroke="black" points="1406,-82.5 1406,-105.5 "/>
<text text-anchor="middle" x="1471" y="-90.3" font-family="Times New Roman,serif" font-size="14.00">(None, 40, 40, 32)</text>
</g>
<!-- 2682524310552&#45;&gt;2682506765592 -->
<g id="edge4" class="edge"><title>2682524310552&#45;&gt;2682506765592</title>
<path fill="none" stroke="black" d="M1240.1,-117C1248.6,-117 1257.11,-117 1265.54,-117"/>
<polygon fill="black" stroke="black" points="1265.79,-120.5 1275.79,-117 1265.79,-113.5 1265.79,-120.5"/>
</g>
<!-- 2682460351064 -->
<g id="node6" class="node"><title>2682460351064</title>
<polygon fill="none" stroke="black" points="1572,-132.5 1572,-201.5 1883,-201.5 1883,-132.5 1572,-132.5"/>
<text text-anchor="middle" x="1727.5" y="-186.3" font-family="Times New Roman,serif" font-size="14.00">separable_conv2d_keras_3: SeparableConv2DKeras</text>
<polyline fill="none" stroke="black" points="1572,-178.5 1883,-178.5 "/>
<text text-anchor="middle" x="1647.5" y="-163.3" font-family="Times New Roman,serif" font-size="14.00">input:</text>
<polyline fill="none" stroke="black" points="1723,-155.5 1723,-178.5 "/>
<text text-anchor="middle" x="1803" y="-163.3" font-family="Times New Roman,serif" font-size="14.00">output:</text>
<polyline fill="none" stroke="black" points="1572,-155.5 1883,-155.5 "/>
<text text-anchor="middle" x="1649.5" y="-140.3" font-family="Times New Roman,serif" font-size="14.00">(None, 40, 40, 32)</text>
<polyline fill="none" stroke="black" points="1727,-132.5 1727,-155.5 "/>
<text text-anchor="middle" x="1805" y="-140.3" font-family="Times New Roman,serif" font-size="14.00">(None, 20, 20, 64)</text>
</g>
<!-- 2682506765592&#45;&gt;2682460351064 -->
<g id="edge5" class="edge"><title>2682506765592&#45;&gt;2682460351064</title>
<path fill="none" stroke="black" d="M1536.03,-137.193C1544.5,-138.517 1553.08,-139.861 1561.68,-141.207"/>
<polygon fill="black" stroke="black" points="1561.37,-144.7 1571.79,-142.788 1562.45,-137.784 1561.37,-144.7"/>
</g>
<!-- 2682525378152 -->
<g id="node11" class="node"><title>2682525378152</title>
<polygon fill="none" stroke="black" points="3124,-82.5 3124,-151.5 3493,-151.5 3493,-82.5 3124,-82.5"/>
<text text-anchor="middle" x="3308.5" y="-136.3" font-family="Times New Roman,serif" font-size="14.00">concatenate_1: Concatenate</text>
<polyline fill="none" stroke="black" points="3124,-128.5 3493,-128.5 "/>
<text text-anchor="middle" x="3214" y="-113.3" font-family="Times New Roman,serif" font-size="14.00">input:</text>
<polyline fill="none" stroke="black" points="3304,-105.5 3304,-128.5 "/>
<text text-anchor="middle" x="3398.5" y="-113.3" font-family="Times New Roman,serif" font-size="14.00">output:</text>
<polyline fill="none" stroke="black" points="3124,-105.5 3493,-105.5 "/>
<text text-anchor="middle" x="3246" y="-90.3" font-family="Times New Roman,serif" font-size="14.00">[(None, 40, 40, 128), (None, 40, 40, 32)]</text>
<polyline fill="none" stroke="black" points="3368,-82.5 3368,-105.5 "/>
<text text-anchor="middle" x="3430.5" y="-90.3" font-family="Times New Roman,serif" font-size="14.00">(None, 40, 40, 160)</text>
</g>
<!-- 2682506765592&#45;&gt;2682525378152 -->
<g id="edge11" class="edge"><title>2682506765592&#45;&gt;2682525378152</title>
<path fill="none" stroke="black" d="M1536.2,-112.842C1665.65,-109.039 1870.6,-104 2048,-104 2048,-104 2048,-104 2626,-104 2790.51,-104 2977.33,-107.834 3113.7,-111.337"/>
<polygon fill="black" stroke="black" points="3113.76,-114.84 3123.85,-111.6 3113.94,-107.842 3113.76,-114.84"/>
</g>
<!-- 2682460254672 -->
<g id="node7" class="node"><title>2682460254672</title>
<polygon fill="none" stroke="black" points="1919,-132.5 1919,-201.5 2179,-201.5 2179,-132.5 1919,-132.5"/>
<text text-anchor="middle" x="2049" y="-186.3" font-family="Times New Roman,serif" font-size="14.00">batch_normalization_3: BatchNormalization</text>
<polyline fill="none" stroke="black" points="1919,-178.5 2179,-178.5 "/>
<text text-anchor="middle" x="1981.5" y="-163.3" font-family="Times New Roman,serif" font-size="14.00">input:</text>
<polyline fill="none" stroke="black" points="2044,-155.5 2044,-178.5 "/>
<text text-anchor="middle" x="2111.5" y="-163.3" font-family="Times New Roman,serif" font-size="14.00">output:</text>
<polyline fill="none" stroke="black" points="1919,-155.5 2179,-155.5 "/>
<text text-anchor="middle" x="1984" y="-140.3" font-family="Times New Roman,serif" font-size="14.00">(None, 20, 20, 64)</text>
<polyline fill="none" stroke="black" points="2049,-132.5 2049,-155.5 "/>
<text text-anchor="middle" x="2114" y="-140.3" font-family="Times New Roman,serif" font-size="14.00">(None, 20, 20, 64)</text>
</g>
<!-- 2682460351064&#45;&gt;2682460254672 -->
<g id="edge6" class="edge"><title>2682460351064&#45;&gt;2682460254672</title>
<path fill="none" stroke="black" d="M1883.1,-167C1891.6,-167 1900.11,-167 1908.54,-167"/>
<polygon fill="black" stroke="black" points="1908.79,-170.5 1918.79,-167 1908.79,-163.5 1908.79,-170.5"/>
</g>
<!-- 2682524874680 -->
<g id="node8" class="node"><title>2682524874680</title>
<polygon fill="none" stroke="black" points="2215,-132.5 2215,-201.5 2459,-201.5 2459,-132.5 2215,-132.5"/>
<text text-anchor="middle" x="2337" y="-186.3" font-family="Times New Roman,serif" font-size="14.00">conv2d_1: Conv2D</text>
<polyline fill="none" stroke="black" points="2215,-178.5 2459,-178.5 "/>
<text text-anchor="middle" x="2273.5" y="-163.3" font-family="Times New Roman,serif" font-size="14.00">input:</text>
<polyline fill="none" stroke="black" points="2332,-155.5 2332,-178.5 "/>
<text text-anchor="middle" x="2395.5" y="-163.3" font-family="Times New Roman,serif" font-size="14.00">output:</text>
<polyline fill="none" stroke="black" points="2215,-155.5 2459,-155.5 "/>
<text text-anchor="middle" x="2274.5" y="-140.3" font-family="Times New Roman,serif" font-size="14.00">(None, 20, 20, 64)</text>
<polyline fill="none" stroke="black" points="2334,-132.5 2334,-155.5 "/>
<text text-anchor="middle" x="2396.5" y="-140.3" font-family="Times New Roman,serif" font-size="14.00">(None, 20, 20, 128)</text>
</g>
<!-- 2682460254672&#45;&gt;2682524874680 -->
<g id="edge7" class="edge"><title>2682460254672&#45;&gt;2682524874680</title>
<path fill="none" stroke="black" d="M2179.19,-167C2187.61,-167 2196.1,-167 2204.53,-167"/>
<polygon fill="black" stroke="black" points="2204.78,-170.5 2214.78,-167 2204.78,-163.5 2204.78,-170.5"/>
</g>
<!-- 2682525326472 -->
<g id="node9" class="node"><title>2682525326472</title>
<polygon fill="none" stroke="black" points="2495,-132.5 2495,-201.5 2755,-201.5 2755,-132.5 2495,-132.5"/>
<text text-anchor="middle" x="2625" y="-186.3" font-family="Times New Roman,serif" font-size="14.00">batch_normalization_4: BatchNormalization</text>
<polyline fill="none" stroke="black" points="2495,-178.5 2755,-178.5 "/>
<text text-anchor="middle" x="2557.5" y="-163.3" font-family="Times New Roman,serif" font-size="14.00">input:</text>
<polyline fill="none" stroke="black" points="2620,-155.5 2620,-178.5 "/>
<text text-anchor="middle" x="2687.5" y="-163.3" font-family="Times New Roman,serif" font-size="14.00">output:</text>
<polyline fill="none" stroke="black" points="2495,-155.5 2755,-155.5 "/>
<text text-anchor="middle" x="2560" y="-140.3" font-family="Times New Roman,serif" font-size="14.00">(None, 20, 20, 128)</text>
<polyline fill="none" stroke="black" points="2625,-132.5 2625,-155.5 "/>
<text text-anchor="middle" x="2690" y="-140.3" font-family="Times New Roman,serif" font-size="14.00">(None, 20, 20, 128)</text>
</g>
<!-- 2682524874680&#45;&gt;2682525326472 -->
<g id="edge8" class="edge"><title>2682524874680&#45;&gt;2682525326472</title>
<path fill="none" stroke="black" d="M2459.29,-167C2467.62,-167 2476.06,-167 2484.48,-167"/>
<polygon fill="black" stroke="black" points="2484.73,-170.5 2494.73,-167 2484.73,-163.5 2484.73,-170.5"/>
</g>
<!-- 2682525768448 -->
<g id="node10" class="node"><title>2682525768448</title>
<polygon fill="none" stroke="black" points="2791,-132.5 2791,-201.5 3088,-201.5 3088,-132.5 2791,-132.5"/>
<text text-anchor="middle" x="2939.5" y="-186.3" font-family="Times New Roman,serif" font-size="14.00">bilinear_up_sampling2d_1: BilinearUpSampling2D</text>
<polyline fill="none" stroke="black" points="2791,-178.5 3088,-178.5 "/>
<text text-anchor="middle" x="2863" y="-163.3" font-family="Times New Roman,serif" font-size="14.00">input:</text>
<polyline fill="none" stroke="black" points="2935,-155.5 2935,-178.5 "/>
<text text-anchor="middle" x="3011.5" y="-163.3" font-family="Times New Roman,serif" font-size="14.00">output:</text>
<polyline fill="none" stroke="black" points="2791,-155.5 3088,-155.5 "/>
<text text-anchor="middle" x="2865" y="-140.3" font-family="Times New Roman,serif" font-size="14.00">(None, 20, 20, 128)</text>
<polyline fill="none" stroke="black" points="2939,-132.5 2939,-155.5 "/>
<text text-anchor="middle" x="3013.5" y="-140.3" font-family="Times New Roman,serif" font-size="14.00">(None, 40, 40, 128)</text>
</g>
<!-- 2682525326472&#45;&gt;2682525768448 -->
<g id="edge9" class="edge"><title>2682525326472&#45;&gt;2682525768448</title>
<path fill="none" stroke="black" d="M2755.36,-167C2763.81,-167 2772.37,-167 2780.93,-167"/>
<polygon fill="black" stroke="black" points="2780.97,-170.5 2790.97,-167 2780.97,-163.5 2780.97,-170.5"/>
</g>
<!-- 2682525768448&#45;&gt;2682525378152 -->
<g id="edge10" class="edge"><title>2682525768448&#45;&gt;2682525378152</title>
<path fill="none" stroke="black" d="M3088.19,-146.879C3096.63,-145.728 3105.18,-144.563 3113.77,-143.394"/>
<polygon fill="black" stroke="black" points="3114.41,-146.838 3123.85,-142.02 3113.47,-139.903 3114.41,-146.838"/>
</g>
<!-- 2682525839256 -->
<g id="node12" class="node"><title>2682525839256</title>
<polygon fill="none" stroke="black" points="3529,-82.5 3529,-151.5 3840,-151.5 3840,-82.5 3529,-82.5"/>
<text text-anchor="middle" x="3684.5" y="-136.3" font-family="Times New Roman,serif" font-size="14.00">separable_conv2d_keras_4: SeparableConv2DKeras</text>
<polyline fill="none" stroke="black" points="3529,-128.5 3840,-128.5 "/>
<text text-anchor="middle" x="3604.5" y="-113.3" font-family="Times New Roman,serif" font-size="14.00">input:</text>
<polyline fill="none" stroke="black" points="3680,-105.5 3680,-128.5 "/>
<text text-anchor="middle" x="3760" y="-113.3" font-family="Times New Roman,serif" font-size="14.00">output:</text>
<polyline fill="none" stroke="black" points="3529,-105.5 3840,-105.5 "/>
<text text-anchor="middle" x="3608" y="-90.3" font-family="Times New Roman,serif" font-size="14.00">(None, 40, 40, 160)</text>
<polyline fill="none" stroke="black" points="3687,-82.5 3687,-105.5 "/>
<text text-anchor="middle" x="3763.5" y="-90.3" font-family="Times New Roman,serif" font-size="14.00">(None, 40, 40, 64)</text>
</g>
<!-- 2682525378152&#45;&gt;2682525839256 -->
<g id="edge12" class="edge"><title>2682525378152&#45;&gt;2682525839256</title>
<path fill="none" stroke="black" d="M3493.21,-117C3501.68,-117 3510.16,-117 3518.58,-117"/>
<polygon fill="black" stroke="black" points="3518.82,-120.5 3528.82,-117 3518.82,-113.5 3518.82,-120.5"/>
</g>
<!-- 2682525936944 -->
<g id="node13" class="node"><title>2682525936944</title>
<polygon fill="none" stroke="black" points="3876,-82.5 3876,-151.5 4136,-151.5 4136,-82.5 3876,-82.5"/>
<text text-anchor="middle" x="4006" y="-136.3" font-family="Times New Roman,serif" font-size="14.00">batch_normalization_5: BatchNormalization</text>
<polyline fill="none" stroke="black" points="3876,-128.5 4136,-128.5 "/>
<text text-anchor="middle" x="3938.5" y="-113.3" font-family="Times New Roman,serif" font-size="14.00">input:</text>
<polyline fill="none" stroke="black" points="4001,-105.5 4001,-128.5 "/>
<text text-anchor="middle" x="4068.5" y="-113.3" font-family="Times New Roman,serif" font-size="14.00">output:</text>
<polyline fill="none" stroke="black" points="3876,-105.5 4136,-105.5 "/>
<text text-anchor="middle" x="3941" y="-90.3" font-family="Times New Roman,serif" font-size="14.00">(None, 40, 40, 64)</text>
<polyline fill="none" stroke="black" points="4006,-82.5 4006,-105.5 "/>
<text text-anchor="middle" x="4071" y="-90.3" font-family="Times New Roman,serif" font-size="14.00">(None, 40, 40, 64)</text>
</g>
<!-- 2682525839256&#45;&gt;2682525936944 -->
<g id="edge13" class="edge"><title>2682525839256&#45;&gt;2682525936944</title>
<path fill="none" stroke="black" d="M3840.1,-117C3848.6,-117 3857.11,-117 3865.54,-117"/>
<polygon fill="black" stroke="black" points="3865.79,-120.5 3875.79,-117 3865.79,-113.5 3865.79,-120.5"/>
</g>
<!-- 2682526344864 -->
<g id="node14" class="node"><title>2682526344864</title>
<polygon fill="none" stroke="black" points="4172,-82.5 4172,-151.5 4483,-151.5 4483,-82.5 4172,-82.5"/>
<text text-anchor="middle" x="4327.5" y="-136.3" font-family="Times New Roman,serif" font-size="14.00">separable_conv2d_keras_5: SeparableConv2DKeras</text>
<polyline fill="none" stroke="black" points="4172,-128.5 4483,-128.5 "/>
<text text-anchor="middle" x="4247.5" y="-113.3" font-family="Times New Roman,serif" font-size="14.00">input:</text>
<polyline fill="none" stroke="black" points="4323,-105.5 4323,-128.5 "/>
<text text-anchor="middle" x="4403" y="-113.3" font-family="Times New Roman,serif" font-size="14.00">output:</text>
<polyline fill="none" stroke="black" points="4172,-105.5 4483,-105.5 "/>
<text text-anchor="middle" x="4249.5" y="-90.3" font-family="Times New Roman,serif" font-size="14.00">(None, 40, 40, 64)</text>
<polyline fill="none" stroke="black" points="4327,-82.5 4327,-105.5 "/>
<text text-anchor="middle" x="4405" y="-90.3" font-family="Times New Roman,serif" font-size="14.00">(None, 40, 40, 64)</text>
</g>
<!-- 2682525936944&#45;&gt;2682526344864 -->
<g id="edge14" class="edge"><title>2682525936944&#45;&gt;2682526344864</title>
<path fill="none" stroke="black" d="M4136.03,-117C4144.5,-117 4153.08,-117 4161.68,-117"/>
<polygon fill="black" stroke="black" points="4161.79,-120.5 4171.79,-117 4161.79,-113.5 4161.79,-120.5"/>
</g>
<!-- 2682526731568 -->
<g id="node15" class="node"><title>2682526731568</title>
<polygon fill="none" stroke="black" points="4519,-82.5 4519,-151.5 4779,-151.5 4779,-82.5 4519,-82.5"/>
<text text-anchor="middle" x="4649" y="-136.3" font-family="Times New Roman,serif" font-size="14.00">batch_normalization_6: BatchNormalization</text>
<polyline fill="none" stroke="black" points="4519,-128.5 4779,-128.5 "/>
<text text-anchor="middle" x="4581.5" y="-113.3" font-family="Times New Roman,serif" font-size="14.00">input:</text>
<polyline fill="none" stroke="black" points="4644,-105.5 4644,-128.5 "/>
<text text-anchor="middle" x="4711.5" y="-113.3" font-family="Times New Roman,serif" font-size="14.00">output:</text>
<polyline fill="none" stroke="black" points="4519,-105.5 4779,-105.5 "/>
<text text-anchor="middle" x="4584" y="-90.3" font-family="Times New Roman,serif" font-size="14.00">(None, 40, 40, 64)</text>
<polyline fill="none" stroke="black" points="4649,-82.5 4649,-105.5 "/>
<text text-anchor="middle" x="4714" y="-90.3" font-family="Times New Roman,serif" font-size="14.00">(None, 40, 40, 64)</text>
</g>
<!-- 2682526344864&#45;&gt;2682526731568 -->
<g id="edge15" class="edge"><title>2682526344864&#45;&gt;2682526731568</title>
<path fill="none" stroke="black" d="M4483.1,-117C4491.6,-117 4500.11,-117 4508.54,-117"/>
<polygon fill="black" stroke="black" points="4508.79,-120.5 4518.79,-117 4508.79,-113.5 4508.79,-120.5"/>
</g>
<!-- 2682526856920 -->
<g id="node16" class="node"><title>2682526856920</title>
<polygon fill="none" stroke="black" points="4815,-82.5 4815,-151.5 5112,-151.5 5112,-82.5 4815,-82.5"/>
<text text-anchor="middle" x="4963.5" y="-136.3" font-family="Times New Roman,serif" font-size="14.00">bilinear_up_sampling2d_2: BilinearUpSampling2D</text>
<polyline fill="none" stroke="black" points="4815,-128.5 5112,-128.5 "/>
<text text-anchor="middle" x="4887" y="-113.3" font-family="Times New Roman,serif" font-size="14.00">input:</text>
<polyline fill="none" stroke="black" points="4959,-105.5 4959,-128.5 "/>
<text text-anchor="middle" x="5035.5" y="-113.3" font-family="Times New Roman,serif" font-size="14.00">output:</text>
<polyline fill="none" stroke="black" points="4815,-105.5 5112,-105.5 "/>
<text text-anchor="middle" x="4889" y="-90.3" font-family="Times New Roman,serif" font-size="14.00">(None, 40, 40, 64)</text>
<polyline fill="none" stroke="black" points="4963,-82.5 4963,-105.5 "/>
<text text-anchor="middle" x="5037.5" y="-90.3" font-family="Times New Roman,serif" font-size="14.00">(None, 80, 80, 64)</text>
</g>
<!-- 2682526731568&#45;&gt;2682526856920 -->
<g id="edge16" class="edge"><title>2682526731568&#45;&gt;2682526856920</title>
<path fill="none" stroke="black" d="M4779.36,-117C4787.81,-117 4796.37,-117 4804.93,-117"/>
<polygon fill="black" stroke="black" points="4804.97,-120.5 4814.97,-117 4804.97,-113.5 4804.97,-120.5"/>
</g>
<!-- 2682526856920&#45;&gt;2682526857536 -->
<g id="edge17" class="edge"><title>2682526856920&#45;&gt;2682526857536</title>
<path fill="none" stroke="black" d="M5112.17,-96.5188C5120.62,-95.3461 5129.18,-94.1596 5137.75,-92.9702"/>
<polygon fill="black" stroke="black" points="5138.4,-96.414 5147.83,-91.5733 5137.44,-89.4804 5138.4,-96.414"/>
</g>
<!-- 2682526857312 -->
<g id="node18" class="node"><title>2682526857312</title>
<polygon fill="none" stroke="black" points="5540,-32.5 5540,-101.5 5851,-101.5 5851,-32.5 5540,-32.5"/>
<text text-anchor="middle" x="5695.5" y="-86.3" font-family="Times New Roman,serif" font-size="14.00">separable_conv2d_keras_6: SeparableConv2DKeras</text>
<polyline fill="none" stroke="black" points="5540,-78.5 5851,-78.5 "/>
<text text-anchor="middle" x="5615.5" y="-63.3" font-family="Times New Roman,serif" font-size="14.00">input:</text>
<polyline fill="none" stroke="black" points="5691,-55.5 5691,-78.5 "/>
<text text-anchor="middle" x="5771" y="-63.3" font-family="Times New Roman,serif" font-size="14.00">output:</text>
<polyline fill="none" stroke="black" points="5540,-55.5 5851,-55.5 "/>
<text text-anchor="middle" x="5617.5" y="-40.3" font-family="Times New Roman,serif" font-size="14.00">(None, 80, 80, 80)</text>
<polyline fill="none" stroke="black" points="5695,-32.5 5695,-55.5 "/>
<text text-anchor="middle" x="5773" y="-40.3" font-family="Times New Roman,serif" font-size="14.00">(None, 80, 80, 32)</text>
</g>
<!-- 2682526857536&#45;&gt;2682526857312 -->
<g id="edge19" class="edge"><title>2682526857536&#45;&gt;2682526857312</title>
<path fill="none" stroke="black" d="M5504.02,-67C5512.61,-67 5521.21,-67 5529.75,-67"/>
<polygon fill="black" stroke="black" points="5529.76,-70.5001 5539.76,-67 5529.76,-63.5001 5529.76,-70.5001"/>
</g>
<!-- 2682527186280 -->
<g id="node19" class="node"><title>2682527186280</title>
<polygon fill="none" stroke="black" points="5887,-32.5 5887,-101.5 6147,-101.5 6147,-32.5 5887,-32.5"/>
<text text-anchor="middle" x="6017" y="-86.3" font-family="Times New Roman,serif" font-size="14.00">batch_normalization_7: BatchNormalization</text>
<polyline fill="none" stroke="black" points="5887,-78.5 6147,-78.5 "/>
<text text-anchor="middle" x="5949.5" y="-63.3" font-family="Times New Roman,serif" font-size="14.00">input:</text>
<polyline fill="none" stroke="black" points="6012,-55.5 6012,-78.5 "/>
<text text-anchor="middle" x="6079.5" y="-63.3" font-family="Times New Roman,serif" font-size="14.00">output:</text>
<polyline fill="none" stroke="black" points="5887,-55.5 6147,-55.5 "/>
<text text-anchor="middle" x="5952" y="-40.3" font-family="Times New Roman,serif" font-size="14.00">(None, 80, 80, 32)</text>
<polyline fill="none" stroke="black" points="6017,-32.5 6017,-55.5 "/>
<text text-anchor="middle" x="6082" y="-40.3" font-family="Times New Roman,serif" font-size="14.00">(None, 80, 80, 32)</text>
</g>
<!-- 2682526857312&#45;&gt;2682527186280 -->
<g id="edge20" class="edge"><title>2682526857312&#45;&gt;2682527186280</title>
<path fill="none" stroke="black" d="M5851.1,-67C5859.6,-67 5868.11,-67 5876.54,-67"/>
<polygon fill="black" stroke="black" points="5876.79,-70.5001 5886.79,-67 5876.79,-63.5001 5876.79,-70.5001"/>
</g>
<!-- 2682527361904 -->
<g id="node20" class="node"><title>2682527361904</title>
<polygon fill="none" stroke="black" points="6183,-32.5 6183,-101.5 6494,-101.5 6494,-32.5 6183,-32.5"/>
<text text-anchor="middle" x="6338.5" y="-86.3" font-family="Times New Roman,serif" font-size="14.00">separable_conv2d_keras_7: SeparableConv2DKeras</text>
<polyline fill="none" stroke="black" points="6183,-78.5 6494,-78.5 "/>
<text text-anchor="middle" x="6258.5" y="-63.3" font-family="Times New Roman,serif" font-size="14.00">input:</text>
<polyline fill="none" stroke="black" points="6334,-55.5 6334,-78.5 "/>
<text text-anchor="middle" x="6414" y="-63.3" font-family="Times New Roman,serif" font-size="14.00">output:</text>
<polyline fill="none" stroke="black" points="6183,-55.5 6494,-55.5 "/>
<text text-anchor="middle" x="6260.5" y="-40.3" font-family="Times New Roman,serif" font-size="14.00">(None, 80, 80, 32)</text>
<polyline fill="none" stroke="black" points="6338,-32.5 6338,-55.5 "/>
<text text-anchor="middle" x="6416" y="-40.3" font-family="Times New Roman,serif" font-size="14.00">(None, 80, 80, 32)</text>
</g>
<!-- 2682527186280&#45;&gt;2682527361904 -->
<g id="edge21" class="edge"><title>2682527186280&#45;&gt;2682527361904</title>
<path fill="none" stroke="black" d="M6147.03,-67C6155.5,-67 6164.08,-67 6172.68,-67"/>
<polygon fill="black" stroke="black" points="6172.79,-70.5001 6182.79,-67 6172.79,-63.5001 6172.79,-70.5001"/>
</g>
<!-- 2682527362744 -->
<g id="node21" class="node"><title>2682527362744</title>
<polygon fill="none" stroke="black" points="6530,-32.5 6530,-101.5 6790,-101.5 6790,-32.5 6530,-32.5"/>
<text text-anchor="middle" x="6660" y="-86.3" font-family="Times New Roman,serif" font-size="14.00">batch_normalization_8: BatchNormalization</text>
<polyline fill="none" stroke="black" points="6530,-78.5 6790,-78.5 "/>
<text text-anchor="middle" x="6592.5" y="-63.3" font-family="Times New Roman,serif" font-size="14.00">input:</text>
<polyline fill="none" stroke="black" points="6655,-55.5 6655,-78.5 "/>
<text text-anchor="middle" x="6722.5" y="-63.3" font-family="Times New Roman,serif" font-size="14.00">output:</text>
<polyline fill="none" stroke="black" points="6530,-55.5 6790,-55.5 "/>
<text text-anchor="middle" x="6595" y="-40.3" font-family="Times New Roman,serif" font-size="14.00">(None, 80, 80, 32)</text>
<polyline fill="none" stroke="black" points="6660,-32.5 6660,-55.5 "/>
<text text-anchor="middle" x="6725" y="-40.3" font-family="Times New Roman,serif" font-size="14.00">(None, 80, 80, 32)</text>
</g>
<!-- 2682527361904&#45;&gt;2682527362744 -->
<g id="edge22" class="edge"><title>2682527361904&#45;&gt;2682527362744</title>
<path fill="none" stroke="black" d="M6494.1,-67C6502.6,-67 6511.11,-67 6519.54,-67"/>
<polygon fill="black" stroke="black" points="6519.79,-70.5001 6529.79,-67 6519.79,-63.5001 6519.79,-70.5001"/>
</g>
<!-- 2682527514408 -->
<g id="node22" class="node"><title>2682527514408</title>
<polygon fill="none" stroke="black" points="6826,-32.5 6826,-101.5 7123,-101.5 7123,-32.5 6826,-32.5"/>
<text text-anchor="middle" x="6974.5" y="-86.3" font-family="Times New Roman,serif" font-size="14.00">bilinear_up_sampling2d_3: BilinearUpSampling2D</text>
<polyline fill="none" stroke="black" points="6826,-78.5 7123,-78.5 "/>
<text text-anchor="middle" x="6898" y="-63.3" font-family="Times New Roman,serif" font-size="14.00">input:</text>
<polyline fill="none" stroke="black" points="6970,-55.5 6970,-78.5 "/>
<text text-anchor="middle" x="7046.5" y="-63.3" font-family="Times New Roman,serif" font-size="14.00">output:</text>
<polyline fill="none" stroke="black" points="6826,-55.5 7123,-55.5 "/>
<text text-anchor="middle" x="6897" y="-40.3" font-family="Times New Roman,serif" font-size="14.00">(None, 80, 80, 32)</text>
<polyline fill="none" stroke="black" points="6968,-32.5 6968,-55.5 "/>
<text text-anchor="middle" x="7045.5" y="-40.3" font-family="Times New Roman,serif" font-size="14.00">(None, 160, 160, 32)</text>
</g>
<!-- 2682527362744&#45;&gt;2682527514408 -->
<g id="edge23" class="edge"><title>2682527362744&#45;&gt;2682527514408</title>
<path fill="none" stroke="black" d="M6790.36,-67C6798.81,-67 6807.37,-67 6815.93,-67"/>
<polygon fill="black" stroke="black" points="6815.97,-70.5001 6825.97,-67 6815.97,-63.5001 6815.97,-70.5001"/>
</g>
<!-- 2682527514408&#45;&gt;2682527919912 -->
<g id="edge24" class="edge"><title>2682527514408&#45;&gt;2682527919912</title>
<path fill="none" stroke="black" d="M7123.15,-54.4675C7131.6,-53.7498 7140.18,-53.0222 7148.79,-52.2911"/>
<polygon fill="black" stroke="black" points="7149.25,-55.7648 7158.92,-51.4315 7148.66,-48.7899 7149.25,-55.7648"/>
</g>
<!-- 2682528247312 -->
<g id="node24" class="node"><title>2682528247312</title>
<polygon fill="none" stroke="black" points="7584,-0.5 7584,-69.5 7895,-69.5 7895,-0.5 7584,-0.5"/>
<text text-anchor="middle" x="7739.5" y="-54.3" font-family="Times New Roman,serif" font-size="14.00">separable_conv2d_keras_8: SeparableConv2DKeras</text>
<polyline fill="none" stroke="black" points="7584,-46.5 7895,-46.5 "/>
<text text-anchor="middle" x="7659.5" y="-31.3" font-family="Times New Roman,serif" font-size="14.00">input:</text>
<polyline fill="none" stroke="black" points="7735,-23.5 7735,-46.5 "/>
<text text-anchor="middle" x="7815" y="-31.3" font-family="Times New Roman,serif" font-size="14.00">output:</text>
<polyline fill="none" stroke="black" points="7584,-23.5 7895,-23.5 "/>
<text text-anchor="middle" x="7661.5" y="-8.3" font-family="Times New Roman,serif" font-size="14.00">(None, 160, 160, 35)</text>
<polyline fill="none" stroke="black" points="7739,-0.5 7739,-23.5 "/>
<text text-anchor="middle" x="7817" y="-8.3" font-family="Times New Roman,serif" font-size="14.00">(None, 160, 160, 16)</text>
</g>
<!-- 2682527919912&#45;&gt;2682528247312 -->
<g id="edge26" class="edge"><title>2682527919912&#45;&gt;2682528247312</title>
<path fill="none" stroke="black" d="M7548.19,-35C7556.67,-35 7565.15,-35 7573.55,-35"/>
<polygon fill="black" stroke="black" points="7573.77,-38.5001 7583.77,-35 7573.76,-31.5001 7573.77,-38.5001"/>
</g>
<!-- 2682528197376 -->
<g id="node25" class="node"><title>2682528197376</title>
<polygon fill="none" stroke="black" points="7931,-0.5 7931,-69.5 8195,-69.5 8195,-0.5 7931,-0.5"/>
<text text-anchor="middle" x="8063" y="-54.3" font-family="Times New Roman,serif" font-size="14.00">batch_normalization_9: BatchNormalization</text>
<polyline fill="none" stroke="black" points="7931,-46.5 8195,-46.5 "/>
<text text-anchor="middle" x="7994.5" y="-31.3" font-family="Times New Roman,serif" font-size="14.00">input:</text>
<polyline fill="none" stroke="black" points="8058,-23.5 8058,-46.5 "/>
<text text-anchor="middle" x="8126.5" y="-31.3" font-family="Times New Roman,serif" font-size="14.00">output:</text>
<polyline fill="none" stroke="black" points="7931,-23.5 8195,-23.5 "/>
<text text-anchor="middle" x="7997" y="-8.3" font-family="Times New Roman,serif" font-size="14.00">(None, 160, 160, 16)</text>
<polyline fill="none" stroke="black" points="8063,-0.5 8063,-23.5 "/>
<text text-anchor="middle" x="8129" y="-8.3" font-family="Times New Roman,serif" font-size="14.00">(None, 160, 160, 16)</text>
</g>
<!-- 2682528247312&#45;&gt;2682528197376 -->
<g id="edge27" class="edge"><title>2682528247312&#45;&gt;2682528197376</title>
<path fill="none" stroke="black" d="M7895.13,-35C7903.59,-35 7912.08,-35 7920.49,-35"/>
<polygon fill="black" stroke="black" points="7920.71,-38.5001 7930.71,-35 7920.71,-31.5001 7920.71,-38.5001"/>
</g>
<!-- 2682527865152 -->
<g id="node26" class="node"><title>2682527865152</title>
<polygon fill="none" stroke="black" points="8231,-0.5 8231,-69.5 8542,-69.5 8542,-0.5 8231,-0.5"/>
<text text-anchor="middle" x="8386.5" y="-54.3" font-family="Times New Roman,serif" font-size="14.00">separable_conv2d_keras_9: SeparableConv2DKeras</text>
<polyline fill="none" stroke="black" points="8231,-46.5 8542,-46.5 "/>
<text text-anchor="middle" x="8306.5" y="-31.3" font-family="Times New Roman,serif" font-size="14.00">input:</text>
<polyline fill="none" stroke="black" points="8382,-23.5 8382,-46.5 "/>
<text text-anchor="middle" x="8462" y="-31.3" font-family="Times New Roman,serif" font-size="14.00">output:</text>
<polyline fill="none" stroke="black" points="8231,-23.5 8542,-23.5 "/>
<text text-anchor="middle" x="8308.5" y="-8.3" font-family="Times New Roman,serif" font-size="14.00">(None, 160, 160, 16)</text>
<polyline fill="none" stroke="black" points="8386,-0.5 8386,-23.5 "/>
<text text-anchor="middle" x="8464" y="-8.3" font-family="Times New Roman,serif" font-size="14.00">(None, 160, 160, 16)</text>
</g>
<!-- 2682528197376&#45;&gt;2682527865152 -->
<g id="edge28" class="edge"><title>2682528197376&#45;&gt;2682527865152</title>
<path fill="none" stroke="black" d="M8195.23,-35C8203.65,-35 8212.19,-35 8220.74,-35"/>
<polygon fill="black" stroke="black" points="8220.78,-38.5001 8230.78,-35 8220.78,-31.5001 8220.78,-38.5001"/>
</g>
<!-- 2682528840896 -->
<g id="node27" class="node"><title>2682528840896</title>
<polygon fill="none" stroke="black" points="8578,-0.5 8578,-69.5 8844,-69.5 8844,-0.5 8578,-0.5"/>
<text text-anchor="middle" x="8711" y="-54.3" font-family="Times New Roman,serif" font-size="14.00">batch_normalization_10: BatchNormalization</text>
<polyline fill="none" stroke="black" points="8578,-46.5 8844,-46.5 "/>
<text text-anchor="middle" x="8642" y="-31.3" font-family="Times New Roman,serif" font-size="14.00">input:</text>
<polyline fill="none" stroke="black" points="8706,-23.5 8706,-46.5 "/>
<text text-anchor="middle" x="8775" y="-31.3" font-family="Times New Roman,serif" font-size="14.00">output:</text>
<polyline fill="none" stroke="black" points="8578,-23.5 8844,-23.5 "/>
<text text-anchor="middle" x="8644.5" y="-8.3" font-family="Times New Roman,serif" font-size="14.00">(None, 160, 160, 16)</text>
<polyline fill="none" stroke="black" points="8711,-0.5 8711,-23.5 "/>
<text text-anchor="middle" x="8777.5" y="-8.3" font-family="Times New Roman,serif" font-size="14.00">(None, 160, 160, 16)</text>
</g>
<!-- 2682527865152&#45;&gt;2682528840896 -->
<g id="edge29" class="edge"><title>2682527865152&#45;&gt;2682528840896</title>
<path fill="none" stroke="black" d="M8542.14,-35C8550.64,-35 8559.17,-35 8567.63,-35"/>
<polygon fill="black" stroke="black" points="8567.91,-38.5001 8577.91,-35 8567.91,-31.5001 8567.91,-38.5001"/>
</g>
<!-- 2682528909240 -->
<g id="node28" class="node"><title>2682528909240</title>
<polygon fill="none" stroke="black" points="8880,-0.5 8880,-69.5 9137,-69.5 9137,-0.5 8880,-0.5"/>
<text text-anchor="middle" x="9008.5" y="-54.3" font-family="Times New Roman,serif" font-size="14.00">conv2d_2: Conv2D</text>
<polyline fill="none" stroke="black" points="8880,-46.5 9137,-46.5 "/>
<text text-anchor="middle" x="8942" y="-31.3" font-family="Times New Roman,serif" font-size="14.00">input:</text>
<polyline fill="none" stroke="black" points="9004,-23.5 9004,-46.5 "/>
<text text-anchor="middle" x="9070.5" y="-31.3" font-family="Times New Roman,serif" font-size="14.00">output:</text>
<polyline fill="none" stroke="black" points="8880,-23.5 9137,-23.5 "/>
<text text-anchor="middle" x="8946" y="-8.3" font-family="Times New Roman,serif" font-size="14.00">(None, 160, 160, 16)</text>
<polyline fill="none" stroke="black" points="9012,-0.5 9012,-23.5 "/>
<text text-anchor="middle" x="9074.5" y="-8.3" font-family="Times New Roman,serif" font-size="14.00">(None, 160, 160, 3)</text>
</g>
<!-- 2682528840896&#45;&gt;2682528909240 -->
<g id="edge30" class="edge"><title>2682528840896&#45;&gt;2682528909240</title>
<path fill="none" stroke="black" d="M8844.19,-35C8852.6,-35 8861.09,-35 8869.52,-35"/>
<polygon fill="black" stroke="black" points="8869.79,-38.5001 8879.79,-35 8869.79,-31.5001 8869.79,-38.5001"/>
</g>
</g>
</svg>
